<svg width="535" height="763" viewBox="0 0 535 763" fill="none" xmlns="http://www.w3.org/2000/svg">
<path d="M284.499 3.7815C384.499 17.7815 373.833 169.282 355.999 243.282C363.666 250.282 382.2 266.182 395 273.782C411 283.282 464 326.282 482.5 345.782C501 365.282 506.5 430.782 524.5 472.782C542.5 514.782 524.5 527.782 522 550.782C519.5 573.782 499 628.782 496.5 640.782C494 652.782 453 705.782 438.5 725.782C424 745.782 373.5 748.782 341 754.282C308.5 759.782 304 764.782 221.5 760.282C139 755.782 129.5 733.782 109 713.282C88.4998 692.782 47.9995 624.282 30.9995 597.282C13.9995 570.282 31.4997 560.782 12.9997 542.782C-5.50032 524.782 6.49968 479.282 12.9997 464.282C19.4997 449.282 45.4997 375.782 62.9997 342.782C76.9997 316.382 99.4997 304.448 109 301.782C112.666 302.448 122.1 299.382 130.5 281.782C138.9 264.182 173.666 241.782 190 232.782V222.282C183 219.782 165.9 209.982 153.5 190.782C141.1 171.582 148.333 152.782 153.5 145.782C151.833 141.115 148.2 127.682 147 111.282C145.5 90.7815 159.499 -13.7185 284.499 3.7815Z" fill="#FEF2E2"/>
<path d="M235.965 7.23242C230.629 7.23242 224.599 9.59775 219.484 11.0186C215.19 12.2114 211.464 14.2742 207.359 15.7947C203.496 17.2254 199.865 20.1472 196.297 22.1545C194.076 23.4037 191.67 24.6004 189.541 25.9407C187.456 27.2539 185.314 29.3768 183.058 30.296C179.924 31.5729 177.718 34.744 175.139 36.8538C171.118 40.1436 167.356 43.5619 163.805 47.3215C161.683 49.568 161.828 53.1076 160.464 55.562C159.652 57.0236 159.635 62.6086 161.132 63.3571" stroke="#FBC885" stroke-width="2" stroke-linecap="round"/>
<path d="M158.46 61.5754C157.07 61.7299 154.904 65.9278 154.228 67.1434C152.738 69.8255 151.954 72.6158 150.789 75.3839C148.756 80.2102 147.77 85.7183 147.77 90.9741" stroke="#FBC885" stroke-width="2" stroke-linecap="round"/>
<path d="M150.888 87.4106C144.237 90.9315 144.652 103.221 144.652 109.682" stroke="#FBC885" stroke-width="2" stroke-linecap="round"/>
<path d="M149.552 103.001C149.302 105.252 147.415 107.603 146.904 109.905C146.489 111.775 145.988 114.249 145.988 116.141C145.988 119.854 145.543 123.422 145.543 127.277C145.543 134.255 148.006 140.103 151.779 145.762" stroke="#FBC885" stroke-width="2" stroke-linecap="round"/>
<path d="M234.184 7.23242C237.891 7.23242 241.452 5.89611 245.097 5.89611C247.884 5.89611 250.375 5.52359 253.09 5.02999C254.948 4.69209 256.829 3.86403 258.682 3.66894C260.834 3.44245 262.701 2.33264 265.018 2.33264C268.231 2.33264 271.321 1.88721 274.545 1.88721C279.974 1.88721 285.125 2.7683 290.506 3.19876C294.549 3.52222 301.919 4.26461 305.107 7.13343C307.859 9.61027 311.681 10.5665 314.584 12.8251C316.5 14.3152 317.876 16.4883 319.534 18.1455C320.897 19.5089 323.359 20.6446 325.052 21.5853C326.375 22.32 327.235 23.6782 328.393 24.6043C329.523 25.5083 329.631 27.5617 330.843 28.1678" stroke="#FBC885" stroke-width="2" stroke-linecap="round"/>
<path d="M329.062 23.2681C331.024 23.4861 333.532 25.8796 334.852 27.277C336.141 28.6415 337.092 30.3337 338.416 31.7313C341.496 34.9832 343.712 39.079 346.879 42.4217C349.954 45.6682 353.249 50.8117 354.798 54.9929C355.766 57.6069 356.866 60.4117 358.015 62.9117C358.872 64.7768 360.526 66.9491 360.687 69.0488C360.957 72.5502 362.692 75.5828 364.152 78.5019C365.616 81.4297 368.959 84.8597 369.151 88.3014C369.362 92.1072 370.932 95.9135 370.932 99.8827C370.932 103.283 371.823 106.687 371.823 110.128" stroke="#FBC885" stroke-width="2" stroke-linecap="round"/>
<path d="M286.3 13.9138C287.593 15.0636 289.745 15.1898 291.2 16.24C292.939 17.4962 295.901 18.8588 297.089 20.5953C299.737 24.465 303.759 28.3909 307.458 31.2857C311.214 34.225 315.87 37.5132 320.573 38.6107C322.434 39.0448 333.695 42.5087 334.407 41.0853" stroke="#FBC885" stroke-width="2" stroke-linecap="round"/>
<path d="M293.872 24.1589C292.347 24.4362 290.967 26.3415 289.764 27.277C287.538 29.0083 285.019 30.3053 282.736 31.954C279.034 34.6275 274.407 35.7156 270.709 38.3138C269.157 39.405 267.456 39.2911 265.661 39.6501C262.509 40.2805 259.42 40.7866 256.208 41.0854C252.216 41.4568 248.455 42.8672 244.429 42.8672" stroke="#FBC885" stroke-width="2" stroke-linecap="round"/>
<path d="M264.028 28.6133C260.047 30.035 256.55 32.6666 252.545 33.9585C248.405 35.2942 244.861 38.7759 240.593 39.7244C233.986 41.1925 226.753 43.3126 219.93 43.3126" stroke="#FBC885" stroke-width="2" stroke-linecap="round"/>
<path d="M229.73 45.9851C229.73 53.4463 227.134 60.8055 221.811 66.1286C218.055 69.8849 214.499 74.2686 210.378 77.6109C206.71 80.5864 202.787 83.173 199.44 86.5196" stroke="#FBC885" stroke-width="2" stroke-linecap="round"/>
<path d="M203.003 51.3303C203.003 59.5434 202.918 68.9861 199.539 76.6211C198.207 79.6305 195.57 81.7021 193.897 84.4904C192.926 86.1076 190.977 87.6086 190.977 89.6376" stroke="#FBC885" stroke-width="2" stroke-linecap="round"/>
<path d="M183.405 63.3572C182.241 66.9936 182.959 69.7591 182.959 73.4042C182.959 76.2311 182.64 78.9447 182.514 81.719C182.161 89.481 178.765 97.5805 175.387 104.337" stroke="#FBC885" stroke-width="2" stroke-linecap="round"/>
<path d="M187.413 45.9851C182.521 46.4298 178.815 51.8195 176.723 55.7847C175.181 58.7061 173.681 61.1389 173.604 64.5944C173.531 67.8821 173.604 71.1794 173.604 74.4681C173.604 79.9072 172.254 84.7741 170.264 89.8604C167.818 96.1112 163.004 100.638 159.351 106.119" stroke="#FBC885" stroke-width="2" stroke-linecap="round"/>
<path d="M167.814 66.9207C166.235 67.0961 164.923 68.9411 164.152 70.1377C162.454 72.773 160.113 75.255 158.015 77.5863C153.712 82.3669 147.989 87.4316 146.879 94.0921" stroke="#FBC885" stroke-width="2" stroke-linecap="round"/>
<path d="M165.142 86.9651C163.136 90.7538 161.267 94.7075 158.856 98.3237C157.467 100.409 155.098 103.587 153.115 105.129C151.011 106.766 147.904 107.165 145.543 108.346" stroke="#FBC885" stroke-width="2" stroke-linecap="round"/>
<path d="M163.359 110.573C162.85 112.863 159.765 114.945 159.375 117.477C158.91 120.504 158.819 123.502 158.905 126.609C159.074 132.676 162.53 137.868 165.141 143.09" stroke="#FBC885" stroke-width="2" stroke-linecap="round"/>
<path d="M151.779 109.682C151.779 112.471 151.418 125.344 156.233 124.381" stroke="#FBC885" stroke-width="2" stroke-linecap="round"/>
<path d="M186.968 99.8828C188.183 101.856 187.481 105.619 186.3 107.455C184.849 109.713 182.033 110.867 179.841 112.256C177.839 113.525 176.015 115.055 174.051 116.364" stroke="#FBC885" stroke-width="2" stroke-linecap="round"/>
<path d="M194.986 100.773C194.986 105.088 194.958 109.293 192.981 113.246C191.275 116.657 187.271 119.02 186.077 122.6" stroke="#FBC885" stroke-width="2" stroke-linecap="round"/>
<path d="M233.739 19.259C233.739 24.5502 230.997 27.9037 227.057 31.1868C222.412 35.0581 217.167 38.5387 213.348 43.3125C209.465 48.1662 207.277 53.0371 204.785 58.8037C204.373 59.7591 200.984 70.0385 201.222 70.0385" stroke="#FBC885" stroke-width="2" stroke-linecap="round"/>
<path d="M215.922 18.8137C215.674 21.2872 213.381 24.531 211.863 26.3861C208.963 29.9307 205.425 32.9178 201.866 35.765C198.346 38.5805 196.265 42.474 194.095 46.3316C192.476 49.2101 189.575 53.4917 192.314 56.2302" stroke="#FBC885" stroke-width="2" stroke-linecap="round"/>
<path d="M257.792 9.45947C257.199 13.017 253.633 16.539 251.556 19.259C249.471 21.9873 247.063 24.4472 244.973 27.1778C243.766 28.7551 242.921 30.5234 241.311 31.7312" stroke="#FBC885" stroke-width="2" stroke-linecap="round"/>
<path d="M280.509 9.01416C280.509 15.1607 279.546 22.5378 272.491 23.7135" stroke="#FBC885" stroke-width="2" stroke-linecap="round"/>
<path d="M304.562 13.0229C305.052 17.9153 310.79 23.4736 314.708 25.9405C318.139 28.1004 321.406 31.3582 325.498 32.1766" stroke="#FBC885" stroke-width="2" stroke-linecap="round"/>
<path d="M335.298 37.9673C335.54 39.2988 336.732 40.5362 337.179 41.8772C337.546 42.9805 337.948 44.074 338.515 45.0942C339.858 47.5123 341.804 50.2639 343.761 52.2212C347.21 55.67 350.142 59.4928 353.561 62.9116" stroke="#FBC885" stroke-width="2" stroke-linecap="round"/>
<path d="M351.778 61.5754C351.943 63.3852 352.997 64.9036 353.783 66.4752C354.647 68.2042 355.43 70.2248 356.455 71.8204C357.867 74.017 359.074 76.5434 360.143 78.9474C362.718 84.7412 361.578 92.7558 361.578 98.9919C361.578 102.4 360.959 106.523 361.924 109.781C362.504 111.736 363.36 115.051 363.36 117.032C363.36 119.298 365.347 122.764 366.379 124.827C367.585 127.239 368.843 130.318 371.823 131.063" stroke="#FBC885" stroke-width="2" stroke-linecap="round"/>
<path d="M372.714 96.7646C372.714 101.947 373.16 107.056 373.16 112.256C373.16 116.564 371.947 120.942 371.823 125.272C371.758 127.561 370.933 129.865 370.933 132.177C370.933 133.252 370.803 136.315 370.388 137.299C369.646 139.063 369.901 141.117 368.928 142.867C368.446 143.735 367.953 146.362 367.369 146.653" stroke="#FBC885" stroke-width="2" stroke-linecap="round"/>
<path d="M332.625 45.5398C334.794 47.9798 336.14 51.4223 338.168 54.003C340.139 56.5117 341.563 59.2098 342.969 62.0209C344.079 64.2406 345.761 66.7938 346.433 69.1478C347.153 71.6656 349.422 73.6892 350.343 76.1758C351.215 78.5301 353.053 80.7835 353.585 83.179C354.045 85.2492 354.815 87.5023 355.441 89.5388C356.584 93.2524 358.46 98.028 358.46 101.887C358.46 103.337 359.124 106.164 359.697 107.455C360.063 108.277 359.796 109.698 359.796 110.573C359.796 112.005 360.242 113.335 360.242 114.805C360.242 118.85 361.158 122.156 361.999 125.941C362.342 127.483 362.227 130.904 363.261 132.053C364.553 133.488 364.938 135.508 365.81 137.076C366.569 138.443 366.923 141.443 366.923 142.991C366.923 144.948 367.189 149.056 368.26 150.662" stroke="#FBC885" stroke-width="2" stroke-linecap="round"/>
<path d="M167.369 114.582C167.369 119.077 171.413 124.628 175.634 126.163C178.302 127.133 180.907 127.945 183.825 127.945C185.192 127.945 189.822 129.365 190.532 127.945" stroke="#FBC885" stroke-width="2" stroke-linecap="round"/>
<path d="M225.276 64.6934C224.244 66.0695 224.044 68.0477 223.271 69.5931C222.441 71.2532 221.67 73.1244 221.267 74.9383C220.507 78.3565 217.667 82.2761 215.823 85.2823C213.912 88.3955 211.631 91.8294 209.24 94.5622C207.315 96.762 205.492 100.687 202.559 101.664" stroke="#FBC885" stroke-width="2" stroke-linecap="round"/>
<path d="M199.886 86.5198C201.461 88.2699 201.942 91.8278 202.459 94.0922C202.915 96.0834 202.504 98.6721 203.227 100.551C204.072 102.748 203.449 106.11 203.449 108.445C203.449 111.846 203.622 114.555 202.336 117.7C200.36 122.529 195.575 127.41 195.877 132.845C195.975 134.618 197.252 136.248 197.634 137.967C198.07 139.932 198.764 142.299 199.886 143.981" stroke="#FBC885" stroke-width="2" stroke-linecap="round"/>
<path d="M193.649 139.081C188.545 139.591 183.555 144.058 183.404 149.326C183.302 152.892 183.195 156.585 184.295 160.016C184.721 161.344 186.27 168.053 188.304 166.698" stroke="#FBC885" stroke-width="2" stroke-linecap="round"/>
<path d="M182.068 130.618C177.332 135.354 175.501 144.212 177.07 150.662C177.748 153.449 179.266 155.773 180.633 158.235C181.376 159.572 183.475 162.501 184.741 163.134" stroke="#FBC885" stroke-width="2" stroke-linecap="round"/>
<path d="M174.942 162.689C174.192 162.596 171.392 156.818 170.933 155.785C169.673 152.951 167.717 150.842 166.256 148.213C164.207 144.525 160.64 142.606 157.471 140.071C155.383 138.401 154.272 144.293 153.115 144.872" stroke="#FBC885" stroke-width="2" stroke-linecap="round"/>
<path d="M175.387 164.916C171.153 161.067 165.832 155.483 159.574 156.874C157.028 157.439 153.543 157.18 152.125 160.016C150.943 162.38 151.333 165.202 151.333 167.811C151.333 170.316 153.619 173.869 155.144 175.829C157.453 178.798 159.204 181.695 161.925 184.416C164.632 187.124 166.415 189.762 168.482 192.978C169.662 194.813 174.128 202.352 176.277 198.769" stroke="#FBC885" stroke-width="2" stroke-linecap="round"/>
<path d="M162.024 148.435C157.996 148.435 153.995 146.783 149.997 148.782C147.899 149.83 147.003 151.54 146.879 153.78C146.829 154.671 145.814 156.347 146.532 157.245C147.018 157.852 147.086 159.404 146.854 160.214C145.981 163.27 146.879 168.219 146.879 171.82C146.879 174.047 147.306 176.75 147.794 178.947C148.303 181.236 150.639 183.614 150.888 185.852C151.097 187.732 153.885 190.707 154.798 192.533C156.044 195.027 157.352 197.216 159.351 199.215C162.785 202.649 165.18 207.352 168.928 210.35C172.192 212.961 176.797 215.343 179.395 218.591C180.373 219.813 182.788 220.197 184.097 220.571C185.027 220.836 188.471 222.823 188.304 222.823" stroke="#FBC885" stroke-width="2" stroke-linecap="round"/>
<path d="M166.478 171.152C166.478 173.316 168.994 177.103 170.932 178.18C173.699 179.718 173.486 180.846 173.159 183.624C173.053 184.524 172.268 185.492 172.268 186.52C172.268 187.658 172.654 188.408 172.714 189.415C172.822 191.255 174.05 193.282 174.05 195.206" stroke="#FBC885" stroke-width="2" stroke-linecap="round"/>
<path d="M188.081 184.07C188.392 185.235 189.265 186.212 189.962 187.163C191.09 188.704 191.893 190.369 193.092 191.877C196.468 196.122 200.424 199.842 203.783 204.102C206.667 207.76 210.39 210.806 213.075 214.582C215.109 217.442 215.623 220.878 217.702 223.713" stroke="#FBC885" stroke-width="2" stroke-linecap="round"/>
<path d="M250.442 114.582C253.539 114.238 256.507 112.14 259.401 111.068C260.655 110.603 262.142 110.022 263.459 109.855C264.984 109.662 266.524 109.742 268.037 109.459C269.609 109.166 271.186 108.875 272.788 108.804C275.628 108.677 278.363 108.048 281.177 107.9C282.99 107.805 284.74 107.232 286.572 107.232C289.551 107.232 292.701 107.085 295.654 106.675C297.697 106.392 300.012 106.373 301.989 105.76C304.364 105.023 306.381 104.487 308.906 104.324C311.505 104.157 314.02 103.469 316.589 103.112C319.039 102.772 321.494 102.528 323.939 102.159C327.596 101.607 331.157 101.669 334.852 101.875C337.898 102.044 340.789 102.136 343.823 102.654C344.938 102.845 346.206 103.223 347.324 103.223" stroke="#FBC885" stroke-width="2" stroke-linecap="round"/>
<path d="M334.852 109.682C333.853 110.481 331.784 110.797 330.571 111.192C328.409 111.895 326.007 112.352 323.939 113.295C320.31 114.95 316.677 115.326 312.754 115.646C308.633 115.982 304.595 115.695 300.48 115.695C298.557 115.695 296.732 115.051 294.813 115.027C293.222 115.007 291.733 114.855 290.16 114.582C283.204 113.375 276.636 112.773 269.646 113.914C265.557 114.581 262.467 115.796 258.906 117.972C257.138 119.052 255.49 120.121 253.882 121.437C253.506 121.744 251.516 123.025 252.002 123.268" stroke="#FBC885" stroke-width="2" stroke-linecap="round"/>
<path d="M302.112 123.491C303.552 125.111 303.404 127.152 303.944 129.108C304.427 130.86 304.562 133.082 304.562 134.899C304.562 136.939 304.564 139.099 304.067 141.085C303.648 142.764 302.112 144.719 302.112 146.431" stroke="#FBC885" stroke-width="2" stroke-linecap="round"/>
<path d="M315.03 125.941C315.03 128.96 315.348 131.962 315.488 134.973C315.551 136.328 315.862 137.696 316.094 139.031C316.252 139.94 316.215 140.887 316.589 141.754C317.93 144.855 320.42 147.232 321.489 150.44" stroke="#FBC885" stroke-width="2" stroke-linecap="round"/>
<path d="M288.305 132.399C286.771 134.909 283.421 136.718 280.782 137.695C278.58 138.511 275.251 138.316 273.209 137.076C271.753 136.192 269.99 135.801 268.495 134.961C267.253 134.262 265.885 133.882 264.474 133.686C262.146 133.363 259.74 132.369 257.347 132.635C257.063 132.666 255.35 133.064 255.788 132.845" stroke="#FBC885" stroke-width="2" stroke-linecap="round"/>
<path d="M261.801 126.609C263.343 128.151 264.279 129.85 265.364 131.682C266.451 133.515 267.139 135.74 269.819 135.74" stroke="#FBC885" stroke-width="2" stroke-linecap="round"/>
<path d="M346.21 129.504C343.748 129.504 341.043 129.741 338.972 131.175C338.15 131.744 335.546 133.902 334.629 133.29" stroke="#FBC885" stroke-width="2" stroke-linecap="round"/>
<path d="M328.616 122.6C329.76 122.829 330.797 123.453 331.957 123.664C333.334 123.914 334.755 124.073 336.151 124.146C337.463 124.216 338.961 123.887 340.197 124.382" stroke="#FBC885" stroke-width="2" stroke-linecap="round"/>
<path d="M336.857 143.758C335.084 145.088 332.386 145.437 330.398 146.431C328.697 147.281 326.211 148.022 324.83 149.326C323.952 150.156 322.906 150.625 322.331 151.776C321.774 152.89 320.714 153.933 320.376 155.117C319.997 156.444 318.817 157.384 318.817 158.903C318.817 160.474 319.083 161.839 319.275 163.37C319.417 164.505 320.366 166.235 320.933 167.255C321.502 168.279 321.935 170.405 321.935 171.598C321.935 175.224 322.158 179.033 322.158 182.734C322.158 184.823 322.07 186.927 322.554 188.97C323.079 191.188 324.029 192.912 324.929 194.971C326.352 198.223 327.851 201.031 330.151 203.842C331.79 205.845 333.071 209.112 333.071 211.687C333.071 212.843 332.779 214.414 333.12 215.522C333.311 216.142 333.331 218.34 333.021 219.036C332.53 220.141 332.605 220.767 331.462 221.486C330.466 222.114 328.977 223.002 327.837 223.256C326.881 223.468 325.933 223.936 324.942 223.936C323.337 223.936 321.733 223.936 320.128 223.936C316.907 223.936 314.015 223.03 311.121 221.66C308.385 220.364 306.357 219.036 303.177 219.036C301.041 219.036 298.904 219.036 296.768 219.036C295.314 219.036 293.431 219.706 291.98 219.148C290.588 218.613 289.226 218.492 288.527 216.921C288.335 216.487 287.886 215.95 287.859 215.473C287.814 214.658 287.969 213.819 287.748 213.023C287.405 211.789 287.75 209.675 288.094 208.47C288.4 207.4 289.016 206.907 289.864 206.342" stroke="#FBC885" stroke-width="2" stroke-linecap="round"/>
<path d="M282.959 216.586C282.132 216.887 281.434 218.439 280.905 219.086C279.654 220.612 278.153 221.833 276.834 223.28C274.671 225.653 272.861 228.073 271.328 230.89C268.664 235.784 265.031 241.979 266.478 247.767" stroke="#FBC885" stroke-width="2" stroke-linecap="round"/>
<path d="M283.85 242.199C284.387 242.803 284.089 244.408 284.073 245.144C284.026 247.331 282.866 248.782 281.623 250.44" stroke="#FBC885" stroke-width="2" stroke-linecap="round"/>
<path d="M288.527 245.762C290.173 245.762 291.902 245.985 293.6 245.985C296.404 245.985 299.233 245.504 302.002 245.094C305.237 244.615 307.945 244.829 311.133 245.107C314.578 245.406 317.871 245.094 321.267 245.094C323.921 245.094 326.445 245.762 329.062 245.762" stroke="#FBC885" stroke-width="2" stroke-linecap="round"/>
<path d="M294.763 240.417C298.037 240.417 300.998 238.413 304.29 238.413C305.588 238.413 306.81 238.636 308.113 238.636C309.753 238.636 311.473 239.526 313.137 239.526C314.797 239.526 316.052 239.448 317.307 238.24C318.303 237.28 320.184 237.053 321.489 236.866C322.781 236.682 324.066 237.582 325.275 237.918C327.208 238.455 328.971 239.348 330.843 239.972" stroke="#FBC885" stroke-width="2" stroke-linecap="round"/>
<path d="M325.275 254.448C324.591 254.517 323.876 255.148 323.27 255.45C322.307 255.932 321.342 256.25 320.387 256.787C318.776 257.693 316.387 258.389 314.535 258.457C313.716 258.487 312.839 258.765 312.023 258.89C311.024 259.044 309.997 258.766 309.004 259.014C306.955 259.526 304.449 259.125 302.335 259.125" stroke="#FBC885" stroke-width="2" stroke-linecap="round"/>
<path d="M337.079 215.696C339.156 220.109 341.6 224.231 343.216 228.848C344.029 231.171 344.712 233.596 345.369 235.963C345.776 237.427 345.951 238.847 346.161 240.368C346.481 242.681 348.29 244.316 349.551 246.208" stroke="#FBC885" stroke-width="2" stroke-linecap="round"/>
<path d="M355.565 211.019C355.565 212.206 355.42 213.544 355.231 214.718C354.909 216.717 355.097 218.771 354.848 220.769C354.55 223.152 354.452 225.412 354.452 227.821C354.452 229.843 354.622 231.948 354.439 233.958C354.175 236.863 353.597 239.379 352.893 242.199" stroke="#FBC885" stroke-width="2" stroke-linecap="round"/>
<path d="M325.053 156.453C325.961 156.352 326.776 154.992 327.725 154.72C328.922 154.379 330.074 153.946 331.301 153.792C333.803 153.48 336.333 153.557 338.861 153.557C341.545 153.557 343.581 154.514 345.815 155.834C346.628 156.314 347.877 156.783 348.549 157.455C350.284 159.19 347.421 157.895 346.434 157.566" stroke="#FBC885" stroke-width="2" stroke-linecap="round"/>
<path d="M329.507 150.662C331.826 150.662 334.336 149.85 336.646 149.561C339.262 149.234 341.939 150.22 344.528 150.427C346.913 150.618 349.977 150.865 351.779 152.667C352.701 153.589 354.006 155.083 354.006 156.453" stroke="#FBC885" stroke-width="2" stroke-linecap="round"/>
<path d="M358.237 140.64C356.655 141.071 355.099 141.662 353.548 142.199C351.55 142.891 349.432 143.261 347.547 144.203" stroke="#FBC885" stroke-width="2" stroke-linecap="round"/>
<path d="M235.743 144.649C235.743 147.703 236.275 149.872 237.748 152.654C238.628 154.317 239.326 156.115 240.42 157.653C241.009 158.481 241.849 159.899 242.87 160.239" stroke="#FBC885" stroke-width="2" stroke-linecap="round"/>
<path d="M228.171 163.357C229.147 163.455 230.171 164.37 231.103 164.681C233.241 165.394 235.483 165.86 237.698 166.252C239.41 166.555 244.609 165.584 242.87 165.584" stroke="#FBC885" stroke-width="2" stroke-linecap="round"/>
<path d="M229.062 173.379C230.12 173.379 230.948 173.093 231.969 172.822C234.153 172.244 236.403 172.115 238.638 171.87C240.899 171.622 242.275 172.543 243.984 173.825" stroke="#FBC885" stroke-width="2" stroke-linecap="round"/>
<path d="M280.064 160.907C278.738 161.269 277.216 163.024 276.005 163.803C274.78 164.59 273.704 165.52 272.38 166.153C269.746 167.413 266.825 168.433 263.805 167.762C262.672 167.51 261.631 167.565 260.514 167.193C259.543 166.869 258.548 166.247 257.569 166.03C256.487 165.789 255.647 165.012 254.575 164.706C254.132 164.579 251.813 163.803 253.115 163.803" stroke="#FBC885" stroke-width="2" stroke-linecap="round"/>
<path d="M285.631 158.68C282.876 157.383 279.391 157.121 276.389 157.121C274.677 157.121 273.005 157.344 271.279 157.344C269.945 157.344 268.202 157.323 266.923 157.678C263.965 158.5 260.556 158.672 257.792 160.016C257.411 160.202 251.153 162.731 251.556 163.134" stroke="#FBC885" stroke-width="2" stroke-linecap="round"/>
<path d="M291.2 156.453C289.826 156.3 288.864 154.275 287.302 154.003C284.336 153.487 281.496 152.1 278.554 151.429C275.418 150.714 272.708 151.607 269.596 151.776C267.776 151.874 265.919 152.562 264.152 152.988C262.053 153.495 260.178 154.146 258.238 155.116C257.121 155.675 256.12 156.627 255.008 157.121C254.369 157.405 253.948 158.152 253.338 158.457" stroke="#FBC885" stroke-width="2" stroke-linecap="round"/>
<path d="M250.22 150.885C252 150.885 253.705 150.439 255.454 150.439C257.446 150.439 259.522 150.25 261.455 149.821C262.944 149.49 264.39 149.646 265.859 149.103C266.677 148.801 267.586 148.792 268.433 148.608C269.219 148.437 269.926 147.859 270.722 147.779C274.761 147.375 278.868 147.099 282.959 147.099C285.557 147.099 288.156 147.099 290.754 147.099C292.27 147.099 293.935 146.929 295.32 147.544C298.963 149.163 300.687 152.71 302.336 156.007" stroke="#FBC885" stroke-width="2" stroke-linecap="round"/>
<path d="M311.69 152.889C310.438 153.396 309.134 153.957 307.928 154.56C307.344 154.852 306.898 155.38 306.295 155.612C305.529 155.906 304.26 156.835 303.895 157.566" stroke="#FBC885" stroke-width="2" stroke-linecap="round"/>
<path d="M313.694 158.68C312.511 158.68 311.301 158.473 310.131 158.63C309.235 158.751 308.342 159.023 307.446 159.113C305.943 159.263 305.106 159.877 303.895 160.684" stroke="#FBC885" stroke-width="2" stroke-linecap="round"/>
<path d="M303.226 166.92C303.226 167.806 302.622 168.468 302.558 169.321C302.458 170.677 301.713 172.051 301.445 173.392C300.753 176.851 297.828 179.055 296.322 182.065" stroke="#FBC885" stroke-width="2" stroke-linecap="round"/>
<path d="M245.319 184.292C245.901 186.184 246.514 188.569 248.437 189.638C250.611 190.845 253.093 193.165 255.787 192.088" stroke="#FBC885" stroke-width="2" stroke-linecap="round"/>
<path d="M248.438 172.711C248.639 173.817 250.353 175.74 251.16 176.547C252.596 177.983 254.8 178.767 256.678 179.393" stroke="#FBC885" stroke-width="2" stroke-linecap="round"/>
<path d="M347.102 161.798C346.262 162.408 344.733 162.772 343.761 163.258C342.849 163.714 341.881 164.198 340.915 164.52C338.845 165.21 336.321 165.139 334.135 165.139C332.08 165.139 329.855 164.628 327.899 163.976C326.789 163.606 326.019 162.244 324.83 162.244" stroke="#FBC885" stroke-width="2" stroke-linecap="round"/>
<path d="M179.396 163.357C179.559 164.99 181.651 166.726 182.749 167.824C183.658 168.733 184.722 170.036 185.953 170.484C187.342 170.989 188.886 172.438 190.036 173.379C191.272 174.39 192.152 175.851 192.536 177.388" stroke="#FBC885" stroke-width="2" stroke-linecap="round"/>
<path d="M177.614 162.243C177.614 166.324 178.728 170.162 180.51 173.825C181.348 175.547 181.886 177.126 182.341 178.947C182.824 180.881 183.628 182.573 183.628 184.626C183.628 190.99 183.074 197.662 184.741 203.842C186.288 209.576 187.475 215.437 189.072 221.14C190.065 224.686 190.008 229.767 192.425 232.721C193.256 233.737 193.667 235.346 194.207 236.532C194.608 237.416 194.606 238.885 195.159 239.576C196.294 240.994 196.203 243.141 197.102 244.76C197.829 246.068 198.392 247.465 199.094 248.769C199.954 250.366 201.222 252.847 201.222 254.671" stroke="#FBC885" stroke-width="2" stroke-linecap="round"/>
<path d="M368.26 146.208C368.26 149.256 367.592 152.325 367.592 155.339C367.592 159.439 367.592 163.538 367.592 167.638C367.592 172.256 367.146 176.783 367.146 181.397C367.146 183.646 367.5 186.259 367.097 188.475C366.755 190.352 366.478 192.405 366.478 194.315C366.478 196.155 366.369 198.001 366.045 199.784C365.749 201.412 365.75 203.18 365.253 204.77C364.547 207.03 364.579 209.556 363.632 211.687C363.188 212.686 363.301 214.048 362.865 215.027C362.584 215.661 362.297 216.507 362.247 217.205C362.16 218.421 361.271 219.636 360.96 220.818C359.834 225.095 358.79 229.513 357.446 233.736C356.025 238.202 355.915 242.928 354.117 247.321C353.362 249.169 352.198 250.944 351.222 252.679C350.44 254.069 350.191 255.643 349.663 257.121C348.194 261.236 346.062 265.049 344.862 269.247C344.569 270.272 343.768 271.287 343.526 272.377C343.297 273.406 342.748 274.77 342.202 275.656C341.587 276.655 341.384 277.892 340.915 278.947C340.489 279.907 339.995 280.865 339.48 281.842C338.849 283.041 337.993 284.608 337.08 285.629C336.201 286.61 335.538 287.787 334.63 288.747C334.095 289.312 333.727 290.315 333.182 290.751C331.927 291.755 331.074 293.402 330.064 294.636C328.996 295.941 327.87 297.264 326.711 298.422C325.851 299.282 324.913 299.836 323.828 300.439C323.334 300.714 322.813 300.857 322.281 301.008C321.786 301.15 321.328 301.718 320.821 301.887" stroke="#FBC885" stroke-width="2" stroke-linecap="round"/>
<path d="M333.738 287.188C333.275 287.6 332.644 287.555 332.13 287.856C331.322 288.329 330.38 288.729 329.506 289.068C327.554 289.828 325.185 290.213 323.097 290.306C322.09 290.351 321.128 290.735 320.103 290.751C317.382 290.794 314.656 290.67 311.937 290.764C309.312 290.854 306.696 290.914 304.067 290.974C302.319 291.014 300.6 291.642 298.846 291.642C296.074 291.642 293.303 291.642 290.531 291.642C289.22 291.642 288.016 291.548 286.745 291.407C285.809 291.303 284.883 291.066 283.936 290.974C282.867 290.87 281.761 290.306 280.731 290.306" stroke="#FBC885" stroke-width="2" stroke-linecap="round"/>
<path d="M339.975 280.729C339.975 282.438 341.273 283.809 342.424 284.961C345.184 287.72 349.04 288.466 352.001 290.924C357.029 295.098 361.99 299.485 366.144 304.572C369.11 308.204 370.806 312.647 372.887 316.809C374.275 319.584 376.173 321.815 377.837 324.382C378.655 325.644 379.156 327.094 379.618 328.514C380.402 330.92 381.179 333.471 381.722 335.938C382.431 339.16 383.098 342.38 383.974 345.564C384.474 347.383 385.156 349.25 385.186 351.157C385.209 352.625 385.047 354.153 385.236 355.611C385.823 360.161 386.506 364.527 387.512 369.012C388.504 373.43 388.739 378.123 389.146 382.634C389.688 388.659 390.184 394.601 389.542 400.65C388.866 407.006 388.304 413.468 388.304 419.865C388.304 422.37 388.398 424.897 388.292 427.401C388.199 429.588 387.859 431.781 387.859 433.971C387.859 436.546 387.636 439.12 387.636 441.704C387.636 444.222 387.793 446.761 387.364 449.252C386.595 453.718 385.747 458.135 384.79 462.565C384.504 463.892 384.073 465.326 384.073 466.698" stroke="#FBC885" stroke-width="2" stroke-linecap="round"/>
<path d="M209.377 263.732C210 264.185 210.307 265.605 210.599 266.308C211.722 269.011 212.634 271.973 214.188 274.47C215.01 275.792 215.751 277.057 216.375 278.486C217.501 281.066 219.182 283.278 220.854 285.522C223.422 288.967 225.5 292.635 228.468 295.777C229.939 297.335 231.375 298.932 232.824 300.512C233.587 301.345 234.294 302.192 234.604 303.277" stroke="#FBC885" stroke-width="2" stroke-linecap="round"/>
<path d="M191.309 231.516C191.786 233.287 192.203 235.027 192.71 236.781C193.278 238.745 194.109 240.61 194.632 242.586C195.31 245.148 195.74 247.998 195.74 250.645C195.74 253.278 196.422 255.88 196.422 258.543C196.422 262.829 196.528 267.339 197.189 271.573C197.675 274.684 197.956 277.627 197.956 280.777C197.956 282.891 198.127 285.001 198.127 287.122C198.127 288.843 198.416 290.547 198.288 292.283C198.086 295.002 198.18 297.559 197.483 300.209C196.618 303.495 195.618 306.713 194.547 309.925" stroke="#FBC885" stroke-width="2" stroke-linecap="round"/>
<path d="M330.739 300.55C330.027 301.902 329.094 303.222 328.22 304.47C325.869 307.829 323.043 311.039 320.199 313.978C318.745 315.48 317.373 317.109 315.824 318.514C313.433 320.683 310.559 322.379 307.964 324.29C306.097 325.666 304.293 327.134 302.472 328.57C301.664 329.208 300.846 329.995 299.887 330.379" stroke="#FBC885" stroke-width="2" stroke-linecap="round"/>
<path d="M337.898 295.095C337.466 299.419 337.709 303.858 337.548 308.22C337.464 310.494 336.869 312.717 336.449 314.944C336.215 316.187 335.975 317.425 335.55 318.618C335.352 319.173 335.171 319.73 335.171 320.323" stroke="#FBC885" stroke-width="2" stroke-linecap="round"/>
<path d="M190.553 232.637C188.67 232.742 186.828 233.37 185.014 233.561C182.58 233.817 180.147 236.07 178.227 237.39C175.206 239.467 172.087 242.198 168.636 243.477C167.59 243.864 166.532 244.791 165.61 245.426C161.999 247.908 158.96 251.028 155.642 253.871C153.21 255.956 151.263 258.695 148.992 260.966C146.424 263.534 143.613 266.392 141.384 269.258C139.004 272.318 136.869 275.531 134.563 278.644C132.312 281.682 129.892 284.671 127.775 287.79C125.613 290.978 122.885 293.877 121.005 297.262C119.391 300.168 116.965 302.71 115.346 305.587C113.581 308.726 112.164 312.242 110.235 315.349C107.375 319.956 103.897 324.208 100.832 328.668C98.265 332.401 94.7129 335.278 91.9416 338.806C89.9556 341.333 88.4116 344.219 86.4708 346.807C82.4395 352.182 79.0191 358.05 76.6233 364.279C75.3064 367.703 73.4351 370.915 72.6227 374.571C72.2785 376.12 71.5875 377.648 71.0157 379.119C70.4296 380.626 69.5787 382.629 69.3061 384.196C69.0509 385.663 68.1307 387.046 67.4597 388.351C66.6531 389.919 66.2676 391.523 65.3739 393.035C64.4112 394.664 63.6365 396.56 62.9975 398.335C62.422 399.934 61.7998 402.202 60.8434 403.584C59.6384 405.324 59.297 407.57 58.5354 409.516C57.7969 411.403 57.066 413.352 56.518 415.295C55.3274 419.516 53.4127 423.461 52.3123 427.741C51.7995 429.735 50.6511 431.529 49.9359 433.451C48.8246 436.438 47.6615 439.377 46.5338 442.358C45.007 446.393 43.0039 450.357 41.8494 454.514C41.2614 456.63 40.2057 458.951 39.302 460.959C38.3409 463.095 37.4584 465.475 36.3102 467.507C34.2472 471.157 32.6364 475.053 30.2239 478.5C27.6766 482.139 25.7554 486.162 23.0776 489.732C21.687 491.586 20.8323 493.627 19.59 495.579C18.1972 497.768 16.4055 500.264 15.7604 502.845C15.1689 505.211 12.9492 507.511 12.683 509.906C12.3813 512.621 10.4331 515.279 9.93053 518.043C9.61468 519.781 8.99023 521.686 8.99023 523.446" stroke="#FBC885" stroke-width="2" stroke-linecap="round"/>
<path d="M132.699 279.105C130.569 279.105 128.18 281.334 126.784 282.73C124.871 284.643 123.308 286.947 121.313 288.799C118.486 291.424 115.606 295.075 113.62 298.339C111.531 301.77 108.74 304.759 106.85 308.34C105.248 311.374 103.213 314.213 101.687 317.264C100.396 319.845 99.502 322.753 98.0794 325.282C96.0716 328.852 95.0599 333.151 93.3096 336.651" stroke="#FBC885" stroke-width="2" stroke-linecap="round"/>
<path d="M109.62 300.339C107.908 300.51 106.222 301.125 104.696 301.878C101.026 303.687 97.4233 305.456 93.9251 307.588C89.662 310.186 86.9241 313.232 83.5305 316.751C78.2129 322.266 74.2678 329.031 68.9303 334.566C61.42 342.354 55.2986 351.035 51.0817 361.031C44.356 376.973 39.449 393.768 35.1479 410.508C27.4835 440.337 11.4245 467.225 4.44294 497.22C3.59614 500.858 2.60451 505.001 2.52815 508.743C2.48649 510.784 1.91268 512.804 1.91268 514.829C1.91268 519.167 1.23283 524.179 2.52815 528.37C3.8816 532.748 4.76695 535.538 8.03316 538.508C9.38112 539.733 10.8677 540.864 12.5295 541.602C13.4876 542.028 14.5346 544.062 15.453 543.756" stroke="#FBC885" stroke-width="2" stroke-linecap="round"/>
<path d="M195.169 256.948C190.599 261.519 186.621 266.607 182.689 271.754C181.113 273.816 178.859 275.208 177.252 277.259C175.844 279.056 174.498 280.869 173.183 282.747C167.344 291.088 159.448 297.821 153.386 305.947C149.986 310.504 145.755 314.674 142 318.974C140.039 321.219 138.257 323.993 135.759 325.71C134.114 326.841 126.989 331.765 129.622 326.189C130.871 323.544 133.152 321.354 135.229 319.35C137.57 317.094 139.942 314.951 142.085 312.477C147.515 306.212 153.11 300.011 157.386 292.885C159.648 289.116 162.295 285.598 164.635 281.875C166.835 278.375 169.038 274.677 172.26 272.01C174.373 270.262 176.087 268.206 178.381 266.659C180.133 265.477 181.983 264.374 183.783 263.274C185.056 262.496 187.547 260.641 189.014 260.641" stroke="#FBC885" stroke-width="2" stroke-linecap="round"/>
<path d="M113.313 340.96C110.498 343.774 108.013 347.251 106.235 350.807C103.628 356.021 100.206 360.729 97.003 365.579C93.7849 370.452 90.8532 375.555 87.7709 380.521C86.387 382.751 84.7507 384.83 83.4627 387.12C82.0684 389.599 81.027 392.265 79.7528 394.813C77.4186 399.482 74.8783 404.135 72.7604 408.901C71.7947 411.074 70.8694 413.262 69.9053 415.432C69.2662 416.87 68.3285 418.332 68.076 419.911C67.1989 425.393 68.0487 430.5 69.5463 435.742C70.2313 438.14 71.2258 438.131 73.0168 436.34C74.7426 434.615 76.5951 433.397 77.9235 431.365C79.4588 429.017 81.2619 426.748 82.5737 424.27C86.0809 417.645 88.7864 410.865 91.4638 403.874C92.5063 401.152 93.4023 398.348 94.5411 395.668C95.7959 392.716 97.4611 389.985 98.781 387.052C101.127 381.839 103.058 376.549 105.62 371.426C107.549 367.567 109.722 363.814 111.159 359.732C112.732 355.259 114.839 351.144 116.698 346.807" stroke="#FBC885" stroke-width="2" stroke-linecap="round"/>
<path d="M15.4531 544.372C17.1159 544.372 19.3582 545.123 20.223 546.68C21.3214 548.657 20.6846 551.955 20.6846 554.151C20.6846 560.425 20.6846 566.7 20.6846 572.974C20.6846 577.495 21.1244 582.738 23.6252 586.668C25.7646 590.03 28.0125 593.178 30.5321 596.31C31.4505 597.452 32.4111 598.525 33.3017 599.696C34.4836 601.249 35.1452 603.167 36.2252 604.807C37.1866 606.267 38.2373 607.641 39.1315 609.15C39.5725 609.894 39.5344 611.176 40.3796 611.458" stroke="#FBC885" stroke-width="2" stroke-linecap="round"/>
<path d="M23.1459 540.371C22.4167 539.723 22.1381 539.016 21.5388 538.217C20.4049 536.705 18.8547 535.493 17.7776 533.926C16.8088 532.517 15.4082 530.857 14.2216 529.601C12.305 527.571 10.2054 525.141 8.83624 522.677C7.38228 520.059 12.7094 515.336 14.5293 514.282C18.36 512.065 21.0951 511.869 25.4368 512.658C31.1854 513.703 36.1306 519.327 39.3019 523.908C41.8674 527.613 45.8562 530.732 47.5252 535.071C48.9291 538.721 49.2913 545.464 46.6704 548.834C44.8306 551.199 41.7757 551.933 39.0796 552.988C36.3774 554.046 33.5598 554.851 30.8392 555.758" stroke="#FBC885" stroke-width="2" stroke-linecap="round"/>
<path d="M18.5303 496.673C21.7432 496.316 25.4634 494.263 28.7539 495.203C31.3227 495.937 34.1259 495.597 36.5156 497.118C38.6853 498.498 40.9383 499.854 41.9864 502.212C42.6969 503.811 43.1442 504.814 44.2431 506.213C45.7517 508.133 48.5074 509.094 50.4662 510.453C52.2961 511.722 54.6917 512.252 56.2277 513.906C57.7409 515.536 58.4481 517.1 58.5357 519.377C58.7062 523.812 58.8434 528.182 58.8434 532.678" stroke="#FBC885" stroke-width="2" stroke-linecap="round"/>
<path d="M185.937 301.262C184.987 302.971 183.623 304.589 182.552 306.254C181.127 308.471 180.565 311.254 179.406 313.571C178.038 316.307 176.48 318.612 175.474 321.572C174.535 324.336 173.942 327.052 173.166 329.847C172.095 333.703 172.397 338.195 172.397 342.191C172.397 346.174 170.155 347.534 166.567 348.79C163.687 349.798 161.004 350.574 159.027 353.115C158.4 353.922 159.102 354.947 159.472 355.594C160.187 356.846 161.382 356.527 162.31 357.201C162.867 357.607 165.192 357.577 165.934 357.577C167.283 357.577 169.171 357.956 170.396 358.501C172.49 359.431 175.474 361.839 175.474 364.347C175.474 366.996 173.852 369.021 171.713 370.502C169.284 372.184 166.074 374.459 169.918 377.101C171.165 377.959 172.926 377.888 174.397 377.888C177.207 377.888 180.347 378.329 183.099 378.879C185.531 379.366 187.794 380.143 190.177 380.726C190.595 380.828 192.518 381.435 192.092 381.888C191.43 382.591 190.538 382.977 189.784 383.564C188.998 384.174 189.171 385.616 190.262 385.889C192.835 386.532 195.612 386.612 198.246 387.051C201.851 387.652 204.917 389.646 208.333 390.744C210.243 391.358 212.354 391.056 214.249 391.582C217.705 392.542 222.051 392.432 225.618 392.642C229.094 392.846 232.34 393.331 235.79 393.89C239.461 394.484 243.21 394.657 246.868 395.189C251.761 395.901 256.835 396.777 261.776 396.95C266.515 397.116 271.377 397.583 276.103 397.583C278.861 397.583 281.636 397.89 284.429 397.89C289.906 397.89 295.393 397.275 300.893 397.275C305.458 397.275 309.97 397.107 314.553 397.566C317.464 397.857 322.011 398.076 324.862 397.343C326.628 396.889 328.278 396.551 329.956 395.805C331.344 395.188 332.997 394.588 334.572 394.505C336.8 394.388 339.077 393.663 341.274 393.274C342.654 393.03 344.082 393.107 345.412 392.727C347.2 392.216 349.32 392.661 351.173 392.197C352.672 391.823 354.714 391.428 356.251 391.428C357.602 391.428 358.648 390.886 358.576 389.582C358.48 387.85 353.295 386.15 355.037 384.06C355.538 383.458 355.901 382.691 356.422 382.059C357.286 381.009 358.815 380.43 359.96 379.751C361.613 378.772 363.36 377.979 364.884 376.794C367.847 374.489 369.762 371.377 370.953 367.801C372.393 363.482 371.515 358.62 372.253 354.192C372.6 352.109 371.808 349.69 371.808 347.593C371.808 346.308 371.627 345.143 371.518 343.883C371.434 342.917 371.795 341.559 371.432 340.652C370.719 338.868 370.538 336.685 370.03 334.805C369.317 332.167 368.381 329.634 367.637 326.975C367.261 325.633 366.025 324.717 365.654 323.419C365.427 322.625 365.019 321.953 364.577 321.265C363.755 319.987 362.878 318.603 362.337 317.196C361.707 315.558 360.646 314.259 360.046 312.58C359.407 310.792 358.642 309.122 357.789 307.417C356.325 304.488 353.521 301.439 351.19 299.108" stroke="#FBC885" stroke-width="2" stroke-linecap="round"/>
<path d="M274.257 365.579C276.771 366.556 278.694 368.558 281.266 369.511C282.569 369.993 284.174 370.248 285.575 370.195C286.837 370.146 288.873 368.196 289.712 367.357C290.915 366.154 292.152 363.575 293.952 364.655" stroke="#FBC885" stroke-width="2" stroke-linecap="round"/>
<path d="M180.706 297.877C177.859 300.724 175.803 304.155 173.389 307.348C170.474 311.203 167.181 315.079 164.55 319.128C163.2 321.204 161.744 323.237 160.019 325.026C156.768 328.398 154.39 333.162 151.898 337.13C149.395 341.117 146.468 344.617 144.855 349.098C143.653 352.435 143.213 355.974 142.923 359.492C142.105 369.411 142.241 379.554 139.777 389.274C137.476 398.352 135.813 407.581 132.238 416.32C130.85 419.712 130.545 422.446 130.545 426.048C130.545 431.427 130.25 436.928 130.784 442.272C131.299 447.416 130.89 452.728 131.178 457.899C131.479 463.317 132.582 468.845 133.075 474.277C133.584 479.875 134.571 485.409 135.093 490.997C135.741 497.931 137.794 503.823 140.119 510.282C141.583 514.347 144.076 518.185 146.24 521.907C148.708 526.153 150.591 530.582 152.394 535.14C154.192 539.684 155.117 544.516 157.352 548.885C160.619 555.271 164.21 561.488 168.14 567.486C171.457 572.549 175.724 577.036 179.235 581.984C180.657 583.987 182.113 585.958 183.475 588.002C185.238 590.646 187.307 592.604 189.322 595.011C194.252 600.899 199.971 606.464 206.008 611.218C211.488 615.534 216.25 620.379 222.216 623.921C228.207 627.478 234.331 630.809 240.269 634.469C244.812 637.269 249.754 639.381 254.442 641.923C261.289 645.637 267.891 649.004 275.419 651.155C276.716 651.526 278.478 652.181 279.796 652.369C281.177 652.566 282.387 653.309 283.797 653.309" stroke="#FBC885" stroke-width="2" stroke-linecap="round"/>
<path d="M128.083 470.208C127.238 474.014 127.776 478.338 127.776 482.21C127.776 487.521 127.776 492.832 127.776 498.143C127.776 502.923 128.427 507.935 128.015 512.675C127.611 517.322 127.468 522.15 127.468 526.814C127.468 542.334 126.723 557.789 126.545 573.299C126.431 583.208 125.229 593.224 126.22 603.132C126.57 606.637 129.208 610.15 131.776 612.535C133.95 614.553 136.422 616.142 138.683 618.091C140.926 620.025 142.892 622.326 144.94 624.451C146.782 626.361 147.898 628.945 149.317 631.153C150.826 633.5 152.762 635.162 154.549 637.239C157.876 641.106 162.484 644.012 166.106 647.634C172.055 653.583 177.815 659.644 184.074 665.277C185.387 666.459 186.839 667.443 188.091 668.696C189.672 670.277 191.004 672.105 192.707 673.552C196.378 676.669 199.466 679.404 203.718 681.69C206.486 683.177 209.301 684.594 212.026 686.169C213.645 687.104 215.482 688.484 217.343 688.716C219.264 688.956 221.011 690.184 222.865 690.699C224.216 691.075 225.39 691.61 226.695 692.084C227.543 692.392 228.698 692.726 229.482 693.161C230.304 693.618 231.18 694.24 232.097 694.546" stroke="#FBC885" stroke-width="2" stroke-linecap="round"/>
<path d="M260.408 652.694C257.637 652.694 254.649 651.035 252.031 650.232C249.643 649.501 247.241 648.195 244.953 647.155C242.665 646.115 240.201 644.986 238.012 643.77C235.49 642.369 233.346 640.383 230.866 638.915C228.206 637.339 226.253 635.276 223.788 633.444C219.509 630.263 215.889 626.509 211.787 623.152C208.581 620.53 204.85 618.093 202.264 614.86C200.331 612.445 197.533 609.996 195.101 608.073C191.497 605.224 187.931 603.149 183.304 603.149C179.22 603.149 179.165 608.358 179.936 611.441C180.818 614.967 181.538 617.431 184.244 619.938C188.414 623.798 192.204 628.3 197.015 631.392C201.973 634.58 206.598 637.694 212.026 640.077C215.557 641.628 219.11 643.241 222.797 644.386C226.076 645.403 229.371 645.753 232.712 646.403C236.898 647.217 241.29 647.705 245.364 649.002C248.814 650.099 252.52 650.167 255.946 651.31C257.409 651.797 259.164 652.694 260.716 652.694" stroke="#FBC885" stroke-width="2" stroke-linecap="round"/>
<path d="M349.345 280.336C349.51 283.318 354.267 285.029 356.491 286.046C360.824 288.029 365.47 288.994 369.963 290.491C375.928 292.48 381.808 294.243 387.88 295.894C392.147 297.054 396.28 298.924 400.702 299.416C403.919 299.773 407.326 300.991 410.43 301.878C413.718 302.817 417.003 303.609 420.158 304.989C425.895 307.499 432.332 309.334 436.81 313.811C440.029 317.03 441.501 322.403 442.759 326.736C443.476 329.207 444.154 331.749 444.742 334.258C445.86 339.025 447.648 343.398 448.264 348.328C448.804 352.647 448.629 356.792 448.452 361.116C448.274 365.488 447.103 369.581 446.435 373.887C445.348 380.893 444.742 388.026 444.742 395.121" stroke="#FBC885" stroke-width="2" stroke-linecap="round"/>
<path d="M356.729 244.332C356.847 245.391 358.137 245.984 358.884 246.554C360.458 247.756 361.897 249.236 363.517 250.349C367.286 252.941 370.775 255.916 374.578 258.487C384.33 265.082 393.329 272.701 403.437 278.798C407.028 280.964 410.202 284.082 413.643 286.491C416.241 288.31 417.69 291.247 420.123 293.193C421.527 294.316 422.562 295.846 423.952 297.022C425.644 298.454 427.34 300.133 428.722 301.861C431.183 304.937 434.286 307.183 437.356 309.571C440.376 311.92 444.175 312.598 447.443 314.495C451.3 316.735 455.055 319.148 458.897 321.419C465.912 325.564 474.647 331.022 478.592 338.498C480.119 341.391 481.702 344.238 483.225 347.132C484.35 349.268 485.278 351.418 486.303 353.594C487.226 355.557 488.56 357.3 489.294 359.356C490.546 362.86 492.164 366.275 493.517 369.733C494.912 373.297 496.801 376.364 498.595 379.752C500.198 382.779 501.656 385.893 503.33 388.881C504.48 390.932 506.007 393.018 506.527 395.36C507.293 398.805 509.057 402.217 510.152 405.601C513.259 415.205 517.059 424.867 517.059 435.127C517.059 442.923 519.783 450.847 521.521 458.378C522.29 461.709 523.258 465.001 523.966 468.345C524.657 471.613 525.209 474.974 525.983 478.209C526.738 481.363 526.706 484.513 527.282 487.681C527.904 491.101 529.764 494.011 530.753 497.306C531.844 500.941 533.676 505.138 533.676 508.983C533.676 515.114 534.403 521.29 533.676 527.464C533.451 529.379 533.172 531.753 532.599 533.584C532.171 534.955 530.718 536.045 529.744 537.055C528.111 538.748 526.963 541.109 525.829 543.124C524.531 545.432 522.918 547.197 521.299 549.296C520.336 550.543 519.293 552.065 517.674 552.065" stroke="#FBC885" stroke-width="2" stroke-linecap="round"/>
<path d="M359.499 381.273C360.926 381.63 361.681 383.235 363.055 383.735C363.844 384.022 365.076 384.496 365.414 385.342C365.766 386.22 366.577 386.331 366.577 387.274C366.577 388.12 366.885 388.834 366.885 389.719C366.885 396.113 366.885 402.507 366.885 408.901C366.885 413.455 366.577 417.96 366.577 422.509C366.577 427.804 365.302 433.035 365.055 438.34C364.771 444.461 364.764 450.84 365.055 456.958C365.462 465.495 364.73 473.972 364.73 482.517" stroke="#FBC885" stroke-width="2" stroke-linecap="round"/>
<path d="M330.88 397.583C328.033 400.746 328.364 405.914 328.418 409.892C328.453 412.485 329.134 415.089 329.495 417.654C330.146 422.286 331.002 426.365 332.384 430.818C333.423 434.166 333.595 437.935 333.649 441.418C333.73 446.592 334.572 451.709 335.017 456.856C335.807 465.994 334.197 475.819 336.727 484.671" stroke="#FBC885" stroke-width="2" stroke-linecap="round"/>
<path d="M338.266 393.274C338.364 394.055 341.571 395.482 342.267 395.907C343.805 396.847 345.006 398.492 345.72 400.113C349.368 408.39 349.345 418.223 349.345 427.194C349.345 437.849 348.089 448.616 347.566 459.266C347.003 470.754 347.234 482.271 346.883 493.767C346.644 501.577 345.965 509.416 345.019 517.171C344.615 520.483 344.081 523.799 342.95 526.951C341.545 530.868 339.176 534.369 337.035 537.909" stroke="#FBC885" stroke-width="2" stroke-linecap="round"/>
<path d="M268.103 404.045C271.271 410.911 271.24 418.29 272.479 425.587C273.819 433.477 276.674 441.047 277.574 449.043C278.514 457.397 278.382 465.918 278.548 474.311C278.746 484.291 279.279 493.718 281.643 503.443C283.139 509.6 284.421 515.86 287.045 521.651C290.113 528.422 292.307 535.674 294.26 542.833" stroke="#FBC885" stroke-width="2" stroke-linecap="round"/>
<path d="M158.549 374.503C155.077 377.974 155.471 383.848 155.471 388.368C155.471 398.945 154.113 409.618 155.01 420.201C156.099 433.052 156.495 446.124 154.548 458.89C153.428 466.236 152.801 473.527 152.24 480.927C151.943 484.847 152.246 488.787 152.462 492.707C152.597 495.138 152.531 497.668 153.009 500.058" stroke="#FBC885" stroke-width="2" stroke-linecap="round"/>
<path d="M178.244 386.504C178.244 395.849 178.859 405.151 178.859 414.508C178.859 425.675 178.244 436.829 178.244 448C178.244 452.92 178.528 457.936 178.09 462.839C177.618 468.133 178.087 473.355 177.919 478.636C177.705 485.369 177.877 492.387 176.551 499.015C175.454 504.504 174.037 510.466 173.936 516.06C173.851 520.696 173.459 525.514 173.081 530.148C172.426 538.174 176.324 545.35 178.859 552.681C179.892 555.667 181.342 558.719 183.612 560.989C185.153 562.53 186.78 563.857 188.091 565.605" stroke="#FBC885" stroke-width="2" stroke-linecap="round"/>
<path d="M212.711 558.527C217.524 559.287 221.741 560.694 225.003 564.391C228.172 567.982 229.798 572.312 231.619 576.649C232.748 579.337 233.234 582.239 234.116 585.01C235.302 588.739 236.386 592.482 237.347 596.276C238.953 602.622 242.13 611.246 248.049 614.945C250.356 616.387 252.973 615.812 255.486 615.766C258.636 615.708 259.48 614.108 260.034 611.218C260.768 607.382 260.361 603.343 260.649 599.456C261.075 593.7 261.025 587.69 261.025 581.915" stroke="#FBC885" stroke-width="2" stroke-linecap="round"/>
<path d="M241.021 405.276C242.08 407.394 243.15 409.496 243.723 411.807C245.195 417.745 247.265 423.494 248.971 429.365C250.718 435.377 251.733 441.559 253.639 447.538C255.251 452.597 256.721 457.56 257.964 462.72C260.241 472.172 263.216 481.75 264.563 491.39C266.188 503.013 268.211 514.595 269.624 526.25C272.207 547.566 271.179 568.97 271.179 590.361C271.179 593.814 271.179 597.268 271.179 600.721C271.179 604.197 270.623 607.613 270.564 611.082C270.527 613.262 270.256 615.41 270.256 617.595C270.256 618.43 269.81 619.405 270.256 620.074" stroke="#FBC885" stroke-width="2" stroke-linecap="round"/>
<path d="M290.874 596.071C290.874 599.351 290.566 602.617 290.566 605.901C290.566 609.432 290.757 613.029 290.498 616.552C290.412 617.73 289.018 625.147 289.951 625.613" stroke="#FBC885" stroke-width="2" stroke-linecap="round"/>
<path d="M390.273 429.587C390.273 432.619 390.273 435.651 390.273 438.682C390.273 442.248 390.996 445.852 391.179 449.419C391.367 453.095 391.132 456.754 391.435 460.429C391.834 465.268 392.387 470.001 392.974 474.824C394.046 483.638 392.956 493.023 391.982 501.785C390.715 513.19 388.089 524.868 382.579 535.071C379.709 540.387 376.382 545.256 372.749 550.065C370.684 552.798 368.906 555.605 366.577 558.152C364.503 560.419 362.074 562.563 360.251 565.041C356.653 569.935 352.872 574.696 349.412 579.693C344.906 586.202 339.891 592.648 335.906 599.49C329.061 611.244 318.613 620.606 309.509 630.537C305.476 634.938 300.657 638.639 295.73 641.924C294.43 642.79 292.946 643.431 291.661 644.249C290.032 645.285 288.751 647.469 287.643 648.984C282.873 655.512 278.688 662.785 274.838 669.927C271.708 675.735 267.142 680.409 261.657 684.066C258.663 686.062 254.875 687.932 251.348 688.699C248.275 689.367 245.291 690.281 242.27 691.144C239.745 691.865 237.172 691.858 234.628 692.392C230.843 693.186 227.015 694.322 223.327 695.469C219.36 696.703 215.194 698.056 211.428 699.829C207.078 701.876 204.171 705.417 201.358 709.215C197.239 714.776 194.202 720.89 189.322 725.935C186.703 728.642 184.206 732.21 180.381 733.167C178.636 733.603 176.572 733.32 174.79 733.32C171.86 733.32 169.009 733.324 166.106 733.782C163.327 734.221 160.377 734.092 157.865 735.543C156.807 736.154 152.954 738.664 156.087 736.706" stroke="#FBC885" stroke-width="2" stroke-linecap="round"/>
<path d="M386.888 304.34C387.912 304.619 388.753 305.936 389.503 306.631C390.461 307.517 391.648 308.21 392.564 309.127C393.937 310.5 395.456 311.964 397.043 313.11C402.616 317.135 407.667 322.226 412.754 326.804C414.173 328.081 415.746 330.497 417.661 331.044C419.971 331.704 421.968 333.351 424.123 334.429C426.667 335.701 429.448 336.502 432.056 337.643C434.325 338.636 436.457 339.857 438.895 340.344" stroke="#FBC885" stroke-width="2" stroke-linecap="round"/>
<path d="M425.662 337.267C428.68 343.303 431.223 349.642 433.355 356.039C435.321 361.936 437.517 367.705 439.51 373.579C442.083 381.162 443.611 389.065 446.212 396.659C446.76 398.261 446.717 400.076 447.05 401.737C447.525 404.115 448.144 406.486 448.759 408.832C450.029 413.671 451.037 418.851 451.443 423.843C452.207 433.213 452.07 442.624 452.811 451.983C453.248 457.499 453.452 463.033 454.264 468.515C455.045 473.783 454.538 479.146 454.965 484.432C455.115 486.283 455.15 488.101 455.222 489.954C455.352 493.356 456.336 496.709 457.034 500.024C457.751 503.428 458.184 507.046 458.282 510.521C458.504 518.388 459.366 526.2 460.06 534.046C461.996 555.928 465.052 577.677 465.052 599.695C465.052 604.085 464.285 608.455 464.146 612.843C463.976 618.19 463.972 623.564 463.445 628.896C462.606 637.377 460.288 644.815 456.743 652.626C454.751 657.016 452.943 661.456 451.375 666.012C449.566 671.266 448.562 676.839 447.203 682.236C446.012 686.967 445.543 691.907 443.836 696.495C442.679 699.604 441.732 702.783 440.433 705.864C437.987 711.664 435.319 717.376 432.125 722.789C431.205 724.347 430.049 725.934 428.876 727.319C427.904 728.469 427.732 729.189 426.278 728.704" stroke="#FBC885" stroke-width="2" stroke-linecap="round"/>
<path d="M437.664 457.283C438.255 457.801 438.241 460.74 438.279 461.66C438.37 463.84 438.857 466.008 438.895 468.19C439.014 475.122 438.851 482.044 438.604 488.962C438.057 504.268 437.717 519.73 439.51 534.969C440.103 540.009 440.672 545.145 440.741 550.219C440.814 555.582 441.538 560.783 441.972 566.101C443.065 579.492 445.269 593.029 443.972 606.517C443.302 613.492 444.31 620.631 443.066 627.562C442.108 632.898 441.207 638.367 440.673 643.77C439.679 653.813 435.225 662.56 432.415 672.115C430.705 677.929 429.249 683.79 427.645 689.622C425.997 695.616 423.33 701.315 420.431 706.787C417.394 712.517 414.582 718.516 410.583 723.627C409.298 725.268 407.654 726.56 406.429 728.26C405.144 730.042 403.897 731.875 402.582 733.628" stroke="#FBC885" stroke-width="2" stroke-linecap="round"/>
<path d="M432.432 504.366C432.295 506.765 431.656 509.085 431.27 511.444C430.836 514.098 430.725 516.788 430.278 519.445C429.133 526.251 427.644 532.909 426.756 539.756C425.992 545.651 425.62 551.797 424.123 557.57C422.235 564.853 418.838 570.99 415.199 577.539C411.884 583.506 408.934 589.67 405.523 595.592C403.296 599.459 400.67 603.173 398.65 607.15C397.111 610.179 395.638 613.102 393.914 616.04C390.87 621.229 387.818 626.912 385.657 632.555C383.46 638.291 380.095 643.553 377.28 649.001C373.712 655.904 369.169 662.686 364.184 668.628C358.464 675.445 351.767 681.181 345.822 687.759C341.738 692.277 337.213 696.485 333.513 701.333C329.241 706.931 326.874 713.825 322.435 719.233C320.163 722.001 318.383 725.137 315.87 727.713C313.389 730.254 311.038 732.846 308.655 735.475C305.14 739.352 301.949 743.487 298.397 747.322C295.311 750.655 292.192 753.742 288.874 756.845C287.903 757.753 286.707 759.552 285.489 760.093C284.797 760.401 284.33 760.791 283.797 761.324" stroke="#FBC885" stroke-width="2" stroke-linecap="round"/>
<path d="M297.953 672.697C301.175 669.475 304.487 666.304 307.8 663.174C311.135 660.025 314.964 657.438 318.4 654.404C320.488 652.56 322.462 650.634 324.726 649.002C326.786 647.515 329.089 646.256 330.983 644.557C333.668 642.147 335.679 639.16 338.283 636.692C341.27 633.862 343.562 630.78 346.267 627.7C348.917 624.681 351.909 621.998 354.576 618.998C360.167 612.708 365.836 606.372 370.578 599.388C372.813 596.097 376.196 590.779 380.562 589.985C381.756 589.768 388.791 587.904 389.504 589.472C390.076 590.73 389.877 593.012 389.281 594.225C387.551 597.751 384.44 601.239 381.964 604.243C378.418 608.547 374.299 612.369 370.595 616.536C367.072 620.499 363.925 624.93 360.902 629.29C358.552 632.677 356.002 635.969 353.516 639.257C349.479 644.596 345.577 650.164 341.07 655.122C334.78 662.041 329.538 669.788 322.948 676.458C316.534 682.95 310.725 690.201 304.723 697.076C302.568 699.546 299.912 701.777 297.44 703.949C294.125 706.863 290.08 709.554 286.191 711.643C274.604 717.865 262.525 723.178 250.049 727.337C244.434 729.209 238.824 730.863 233.329 733.081C229.822 734.497 225.818 735.818 222.114 736.637C213.703 738.499 205.411 740.722 197.033 742.707C195.19 743.143 193.328 743.443 191.545 744.091C190.394 744.51 188.754 744.368 187.784 745.015" stroke="#FBC885" stroke-width="2" stroke-linecap="round"/>
<path d="M224.712 751.477C227.009 749.435 230.855 749.504 233.311 747.784C235.747 746.08 238.592 745.766 241.09 744.331C244.786 742.208 248.614 741.288 252.545 739.783C254.557 739.012 256.533 738.112 258.563 737.39C261.199 736.451 264.224 736.631 266.974 736.466C269.972 736.287 273.087 736.125 276.086 736.125C276.592 736.125 281.199 736.153 281.318 736.569C281.6 737.558 280.988 738.516 280.412 739.236C277.298 743.128 273.121 746.074 268.581 748.092C262.15 750.95 255.762 754.086 249.519 757.324C248.9 757.645 245.253 759.17 247.176 759.17" stroke="#FBC885" stroke-width="2" stroke-linecap="round"/>
<path d="M312.108 750.861C314.502 748.971 317.332 747.629 319.87 745.937C322.802 743.982 325.252 741.666 327.991 739.475C331.043 737.033 334.684 735.403 337.343 732.465C339.208 730.403 341.588 728.859 343.326 726.704C346.433 722.851 348.94 718.444 351.567 714.241C354.703 709.222 357.516 703.975 360.491 698.854C363.456 693.75 367.012 689.158 370.27 684.271C372.323 681.191 375.361 677.877 378.1 675.466C379.275 674.432 389.482 662.681 390.957 664.319C392.57 666.112 390.702 670.245 390.102 672.098C389.366 674.373 388.179 676.835 387.127 678.988C385.483 682.352 383.793 685.649 381.827 688.836C379.316 692.906 376.843 696.878 373.963 700.7C370.765 704.945 367.4 709.615 363.5 713.249C356.782 719.509 351.417 726.912 345.361 733.765C341.301 738.358 337.54 743.575 332.248 746.86C329.015 748.867 326.181 751.063 323.187 753.391C321.444 754.747 317.752 757.012 317.032 759.17" stroke="#FBC885" stroke-width="2" stroke-linecap="round"/>
<path d="M420.123 576.992C419.962 578.914 419.099 580.91 418.584 582.77C417.759 585.751 417.162 588.749 416.567 591.78C415.007 599.72 413.779 607.874 413.113 615.937C412.097 628.239 405.601 639.092 399.983 649.822C395.95 657.526 391.196 664.674 391.196 673.552C391.196 676.384 391.196 679.216 391.196 682.049C391.196 685.468 390.793 689.098 391.811 692.392C392.332 694.076 392.537 695.888 393.811 697.162C394.756 698.106 397.632 698.392 398.889 697.863C400.277 697.278 401.836 696.919 403.197 696.239C405.696 694.989 407.027 692.005 407.437 689.383C408.005 685.749 408.31 682.247 408.104 678.544C407.974 676.209 408.014 674.098 408.104 671.757C408.196 669.36 407.582 666.439 408.429 664.149C409.231 661.977 410.069 659.791 410.651 657.55C412.108 651.949 411.903 645.872 413.045 640.163C414.082 634.975 415.535 630.046 416.122 624.759C416.389 622.355 417.053 620.011 417.353 617.613" stroke="#FBC885" stroke-width="2" stroke-linecap="round"/>
<path d="M428.432 594.532C427.735 605.69 428.315 616.791 429.201 627.922C430.35 642.347 429.103 656.814 427.509 671.158" stroke="#FBC885" stroke-width="2" stroke-linecap="round"/>
<path d="M507.519 460.053C507.232 464.36 507.087 468.679 506.921 472.995C506.807 475.967 506.572 478.924 506.596 481.902C506.617 484.477 507.088 487.007 506.75 489.578C506.032 495.033 505.969 500.514 504.733 505.922C503.121 512.975 503.5 520.276 501.655 527.31C497.221 544.216 493.5 561.27 488.064 577.915C485.978 584.3 483.267 590.441 480.9 596.721C478.365 603.446 476.173 610.304 473.463 616.963C470.351 624.612 466.885 632.113 463.872 639.803C463.01 642.005 462.003 644.19 461.667 646.539" stroke="#FBC885" stroke-width="2" stroke-linecap="round"/>
<path d="M495.209 568.683C494.939 574.234 494.024 579.504 492.901 584.924C491.322 592.547 490.483 599.991 490.217 607.765C489.794 620.126 488.495 632.563 487.037 644.847C486.341 650.713 483.938 655.767 481.652 661.14C479.639 665.87 478.026 670.727 476.13 675.467" stroke="#FBC885" stroke-width="2" stroke-linecap="round"/>
<path d="M511.52 512.675C511.13 523.987 512.136 535.201 512.136 546.509C512.136 552.943 512.566 559.316 512.153 565.725C511.919 569.35 512.136 573.053 512.136 576.684C512.136 580.079 511.828 583.483 511.828 586.839C511.828 595.795 509.596 605.131 505.964 613.304C500.319 626.006 494.565 638.996 491.825 652.694" stroke="#FBC885" stroke-width="2" stroke-linecap="round"/>
<path d="M519.829 551.45C519.829 554.841 520.137 558.247 520.137 561.605C520.137 565.222 520.229 569.13 519.521 572.666C518.205 579.248 514.783 585.545 511.828 591.455" stroke="#FBC885" stroke-width="2" stroke-linecap="round"/>
<path d="M207.786 408.661C207.786 412.51 207.963 416.293 208.402 420.116C209.032 425.615 209.017 431.085 209.017 436.614C209.017 448.027 209.633 459.419 209.633 470.823" stroke="#FBC885" stroke-width="2" stroke-linecap="round"/>
<path d="M93.0015 498.827C88.2947 512.538 85.1437 526.809 82.1624 540.987C80.2927 549.878 77.9468 558.629 77.6319 567.76C77.0243 585.381 78.8457 603.002 78.8457 620.621C78.8457 626.894 79.3462 633.401 80.7605 639.53C81.5277 642.854 82.7093 646.066 83.5301 649.377C84.6153 653.755 86.9388 657.575 88.83 661.618C93.0192 670.575 98.6458 678.405 103.977 686.699C105.176 688.564 106.621 690.202 107.328 692.323C108.217 694.989 109.072 698.17 110.85 700.393" stroke="#FBC885" stroke-width="2" stroke-linecap="round"/>
<path d="M38.2256 611.766C40.3738 616.148 42.3962 620.382 45.3035 624.366C48.0154 628.082 50.3681 631.672 52.4497 635.769C56.6251 643.987 62.5934 651.117 68.828 657.789C73.5321 662.823 77.8484 668.738 81.3083 674.697C82.6244 676.964 83.6671 679.373 85.0011 681.621C87.2431 685.399 90.2334 688.492 92.6945 692.084C95.2396 695.799 97.7126 699.691 100.644 703.111C104.277 707.349 108.436 711.119 112.013 715.404C114.889 718.847 117.677 722.405 120.237 726.089C122.674 729.596 124.968 733.532 128.05 736.517C131.564 739.922 135.651 742.387 139.59 745.305C141.389 746.638 142.954 747.577 145.009 748.399" stroke="#FBC885" stroke-width="2" stroke-linecap="round"/>
<path d="M91.7705 589.609C92.6692 594.701 96.0208 599.819 98.3013 604.38C102.759 613.295 107.211 622.744 113.158 630.777C115.76 634.291 118.608 637.595 121.159 641.154C124.096 645.251 127.074 649.308 130.477 653.036C135.625 658.677 141.478 665.039 148.086 669.004" stroke="#FBC885" stroke-width="2" stroke-linecap="round"/>
<path d="M185.015 699.162C182.155 697.882 179.554 695.996 176.791 694.512C172.809 692.372 168.726 690.611 164.567 688.853C156.957 685.636 149.337 682.387 141.795 679.022C139.046 677.796 136.21 676.794 133.503 675.466C130.228 673.86 127.192 672.064 123.707 670.885C120.624 669.841 117.392 668.696 114.099 668.696C112.648 668.696 109.919 668.69 111.227 670.919C112.586 673.234 114.874 674.874 117.074 676.321C121.39 679.161 125.715 681.944 129.93 684.938C135.348 688.786 140.486 692.985 146.001 696.7C151.631 700.493 156.894 704.838 162.55 708.565C165.708 710.646 170.321 713.01 174.244 713.01" stroke="#FBC885" stroke-width="2" stroke-linecap="round"/>
<path d="M179.168 714.856C176.725 714.856 174.512 715.51 172.261 716.395C168.992 717.68 165.727 718.771 162.413 719.917C156.414 721.991 151.46 726.141 146.48 729.935C142.391 733.05 138.325 735.87 135.777 740.398" stroke="#FBC885" stroke-width="2" stroke-linecap="round"/>
<path d="M80.077 485.287C77.6015 488.715 76.6129 493.358 75.461 497.357C73.9149 502.725 72.0352 507.996 70.5544 513.376C68.4256 521.111 66.4734 528.666 65.1348 536.576C64.2437 541.842 62.7858 546.979 62.2285 552.305C61.7392 556.98 61.3509 561.663 60.8608 566.341C59.9955 574.6 59.1791 583.169 59.9205 591.472C60.6685 599.851 59.7813 608.324 61.3053 616.621C62.2922 621.995 64.0485 627.192 65.6819 632.384C67.13 636.987 68.7048 641.71 70.4005 646.232C71.6632 649.599 72.5615 654.147 74.8456 657.003" stroke="#FBC885" stroke-width="2" stroke-linecap="round"/>
<path d="M69.3064 503.135C68.9845 505.309 68.0937 507.388 67.6994 509.564C67.2562 512.009 66.9328 514.337 66.8275 516.813C66.6671 520.581 66.1564 524.5 65.4427 528.199C64.7426 531.826 64.0617 535.645 63.0834 539.209C61.7345 544.122 59.3885 548.61 57.3048 553.228C56.2282 555.614 55.1715 558.165 53.2872 560.049C51.0248 562.312 48.0281 564.299 45.4571 566.204C42.7878 568.181 38.6891 568.834 36.3789 571.145" stroke="#FBC885" stroke-width="2" stroke-linecap="round"/>
<path d="M395.504 321.573C396.325 324.858 398.064 328.369 399.573 331.42C401.123 334.555 402.331 337.883 403.984 340.96C407.503 347.514 411.3 353.891 415.575 359.971C419.097 364.98 419.199 371.035 419.199 376.948C419.199 384.856 418.892 392.765 418.892 400.66" stroke="#FBC885" stroke-width="2" stroke-linecap="round"/>
<path d="M405.352 356.039C405.733 361.382 406.965 366.757 407.506 372.109C408.334 380.306 410.695 388.229 412.105 396.335C412.814 400.414 413.365 404.457 414.344 408.49C415.536 413.397 416.553 418.246 416.704 423.313C416.984 432.785 416.43 442.27 416.43 451.744" stroke="#FBC885" stroke-width="2" stroke-linecap="round"/>
<path d="M189.322 517.907C189.477 519.378 190.984 520.572 191.853 521.668C193.988 524.364 195.974 526.855 197.323 530.079C198.228 532.241 198.989 534.378 199.17 536.73C199.382 539.495 199.027 542.642 199.785 545.295" stroke="#FBC885" stroke-width="2" stroke-linecap="round"/>
<path d="M324.726 483.44C327.42 488.059 328.914 493.453 331.359 498.229C333.422 502.258 336.37 506.355 337.343 510.829C337.968 513.702 338.06 516.655 338.249 519.582C338.342 521.027 338.12 522.485 338.027 523.925C337.911 525.72 338.141 527.586 337.822 529.361C337.16 533.036 336.044 537.006 334.847 540.542C332.919 546.238 328.425 551.187 325.341 556.305C323.38 559.56 321.33 562.756 319.375 566.016C319.102 566.471 318.879 567.229 318.879 567.759" stroke="#FBC885" stroke-width="2" stroke-linecap="round"/>
<path d="M197.324 154.781C196.992 157.768 193.425 160.833 191.477 162.782" stroke="#FBC885" stroke-width="2" stroke-linecap="round"/>
</svg>
