<svg width="223" height="36" viewBox="0 0 223 36" fill="none" xmlns="http://www.w3.org/2000/svg">
<path d="M35.4801 20.0944C35.4384 18.8487 35.6484 17.6074 36.0974 16.4446C36.5465 15.2819 37.2254 14.2217 38.0936 13.3274C38.9617 12.4331 40.0014 11.723 41.1502 11.2397C42.2991 10.7564 43.5337 10.5097 44.7801 10.5144C46.1134 10.474 47.4405 10.7119 48.6767 11.213C49.9129 11.714 51.0312 12.4672 51.9601 13.4244L50.5401 14.9544C49.7976 14.1647 48.9024 13.5341 47.9088 13.1009C46.9153 12.6677 45.844 12.441 44.7601 12.4344C43.7873 12.44 42.8257 12.6424 41.9332 13.0294C41.0407 13.4165 40.2357 13.9801 39.5667 14.6864C38.8978 15.3927 38.3787 16.2271 38.0407 17.1393C37.7027 18.0516 37.5529 19.0227 37.6001 19.9944V20.0444C37.6001 24.3044 40.6701 27.6344 44.7201 27.6344C45.8406 27.6333 46.9483 27.3968 47.9716 26.9403C48.9948 26.4838 49.9108 25.8175 50.6601 24.9844L52.0201 26.3244C51.1019 27.3495 49.9738 28.165 48.7125 28.7154C47.4511 29.2658 46.0861 29.5383 44.7101 29.5144C43.4799 29.5215 42.2608 29.2813 41.1253 28.808C39.9897 28.3347 38.9609 27.6381 38.0999 26.7593C37.2389 25.8806 36.5634 24.8378 36.1133 23.6929C35.6632 22.5479 35.4479 21.3242 35.4801 20.0944Z" fill="#1D4F7D"/>
<path d="M54.8501 10.4543H57.1601V12.6843H54.8501V10.4543ZM54.9801 15.6543H56.9801V29.2443H54.9801V15.6543Z" fill="#1D4F7D"/>
<path d="M60.2701 22.5146C60.2661 21.0723 60.7027 19.6631 61.5215 18.4756C62.3403 17.2882 63.5022 16.3792 64.8518 15.8702C66.2014 15.3612 67.6743 15.2766 69.0733 15.6277C70.4723 15.9788 71.7307 16.7488 72.6801 17.8346L71.3301 19.2546C70.834 18.6336 70.2082 18.1285 69.4966 17.7744C68.785 17.4203 68.0047 17.2258 67.2101 17.2046C66.5438 17.2224 65.8877 17.3733 65.2806 17.6484C64.6734 17.9234 64.1274 18.3171 63.6746 18.8062C63.2218 19.2954 62.8713 19.8701 62.6439 20.4967C62.4164 21.1232 62.3165 21.7889 62.3501 22.4546V22.5146C62.322 23.192 62.43 23.8682 62.6677 24.5031C62.9055 25.1381 63.2682 25.7189 63.7344 26.2111C64.2006 26.7034 64.7608 27.0972 65.3818 27.3692C66.0029 27.6412 66.6722 27.7858 67.3501 27.7946C68.1441 27.7746 68.9248 27.586 69.6403 27.2411C70.3558 26.8963 70.9898 26.4032 71.5001 25.7946L72.7901 26.9946C71.8846 28.157 70.6354 29.0041 69.2204 29.4151C67.8054 29.8261 66.2968 29.7801 64.9095 29.2837C63.5221 28.7873 62.3268 27.8657 61.4938 26.6503C60.6608 25.4349 60.2326 23.9876 60.2701 22.5146Z" fill="#1D4F7D"/>
<path d="M74.4901 22.5146C74.4901 18.6046 77.2501 15.4446 81.0101 15.4446C85.0101 15.4446 87.3401 18.6546 87.3401 22.6246C87.3558 22.841 87.3558 23.0582 87.3401 23.2746H76.5401C76.5767 24.5142 77.0977 25.6902 77.9913 26.5501C78.8849 27.4101 80.08 27.8856 81.3201 27.8746C82.1363 27.8739 82.9424 27.6945 83.6818 27.3489C84.4212 27.0034 85.076 26.5002 85.6001 25.8746L86.8701 27.0046C86.1886 27.8208 85.3301 28.4711 84.3598 28.906C83.3895 29.3409 82.3329 29.549 81.2701 29.5146C80.3597 29.5193 79.4578 29.3397 78.6186 28.9868C77.7794 28.6338 77.0203 28.1148 76.3869 27.4608C75.7535 26.8069 75.259 26.0316 74.933 25.1816C74.607 24.3315 74.4564 23.4243 74.4901 22.5146ZM85.2901 21.7246C85.0801 19.2646 83.6601 17.1046 80.9501 17.1046C78.5901 17.1046 76.8001 19.1046 76.5401 21.7246H85.2901Z" fill="#1D4F7D"/>
<path d="M90.6001 15.6544H92.6001V19.2044C93.0192 18.078 93.7767 17.1089 94.7687 16.4303C95.7606 15.7517 96.9384 15.3968 98.1401 15.4144V17.6044H97.9801C94.9801 17.6044 92.6001 19.7244 92.6001 23.8244V29.2444H90.6001V15.6544Z" fill="#1D4F7D"/>
<path d="M99.4401 22.5144C99.4255 20.6366 100.157 18.83 101.475 17.4919C102.792 16.1539 104.587 15.394 106.465 15.3794C108.343 15.3648 110.149 16.0967 111.488 17.4142C112.826 18.7316 113.586 20.5266 113.6 22.4044V22.5144C113.594 23.4419 113.404 24.359 113.042 25.2132C112.681 26.0673 112.154 26.8417 111.493 27.492C110.831 28.1423 110.048 28.6556 109.188 29.0027C108.328 29.3497 107.408 29.5236 106.48 29.5144C105.557 29.5196 104.643 29.3425 103.789 28.993C102.935 28.6436 102.159 28.1288 101.504 27.4783C100.85 26.8278 100.331 26.0543 99.9767 25.2024C99.6225 24.3505 99.4401 23.437 99.4401 22.5144ZM111.52 22.5144C111.543 21.8368 111.431 21.1615 111.192 20.5273C110.952 19.893 110.59 19.3124 110.125 18.8189C109.66 18.3253 109.103 17.9286 108.484 17.6515C107.865 17.3744 107.198 17.2225 106.52 17.2044C105.842 17.2035 105.171 17.3406 104.547 17.6074C103.924 17.8742 103.361 18.265 102.893 18.7561C102.425 19.2472 102.063 19.8283 101.826 20.4641C101.59 21.0999 101.486 21.777 101.52 22.4544V22.5144C101.496 23.1908 101.607 23.8652 101.846 24.4983C102.086 25.1314 102.448 25.7106 102.914 26.202C103.379 26.6934 103.938 27.0873 104.557 27.3607C105.176 27.6341 105.843 27.7815 106.52 27.7944C107.201 27.7954 107.875 27.6574 108.5 27.3888C109.126 27.1202 109.69 26.7267 110.158 26.2323C110.627 25.738 110.989 25.1532 111.223 24.5139C111.457 23.8746 111.558 23.1941 111.52 22.5144Z" fill="#1D4F7D"/>
<path d="M125.13 10.8445H127.21V29.2445H125.13V10.8445Z" fill="#1D4F7D"/>
<path d="M131.83 15.6545H133.83V18.0245C134.287 17.1972 134.962 16.5114 135.782 16.0423C136.602 15.5731 137.536 15.3386 138.48 15.3645C141.77 15.3645 143.69 17.5745 143.69 20.8045V29.2445H141.69V21.3045C141.69 18.7845 140.33 17.2045 137.94 17.2045C137.38 17.1902 136.823 17.2936 136.306 17.5082C135.789 17.7227 135.322 18.0435 134.936 18.4498C134.551 18.8561 134.255 19.3388 134.068 19.8668C133.881 20.3947 133.806 20.9561 133.85 21.5145V29.2945H131.85L131.83 15.6545Z" fill="#1D4F7D"/>
<path d="M146.42 27.5146L147.42 26.0746C148.764 27.1414 150.415 27.7479 152.13 27.8046C153.76 27.8046 154.94 26.9646 154.94 25.6546V25.5946C154.94 24.2346 153.34 23.7046 151.55 23.2046C149.42 22.6046 147.06 21.8646 147.06 19.3746V19.3146C147.06 16.9846 149 15.4246 151.68 15.4246C153.428 15.448 155.133 15.9645 156.6 16.9146L155.68 18.4446C154.497 17.6389 153.111 17.1816 151.68 17.1246C150.08 17.1246 149.05 17.9646 149.05 19.1246V19.1846C149.05 20.4646 150.73 20.9646 152.55 21.5246C154.65 22.1446 156.91 22.9646 156.91 25.4046V25.4646C156.91 28.0346 154.78 29.5346 152.07 29.5346C150.016 29.5032 148.029 28.793 146.42 27.5146Z" fill="#1D4F7D"/>
<path d="M160.91 25.6444V17.4444H159.02V15.6544H160.91V11.5144H162.91V15.6144H167.22V17.4044H162.91V25.3344C162.866 25.6442 162.895 25.9601 162.994 26.2567C163.094 26.5533 163.262 26.8223 163.485 27.0421C163.708 27.262 163.979 27.4264 164.277 27.5224C164.575 27.6183 164.891 27.643 165.2 27.5944C165.895 27.6024 166.582 27.4411 167.2 27.1244V28.8544C166.445 29.2507 165.603 29.4501 164.75 29.4344C162.6 29.5144 160.91 28.4044 160.91 25.6444Z" fill="#1D4F7D"/>
<path d="M169.96 10.4543H172.27V12.6843H169.96V10.4543ZM170.09 15.6543H172.09V29.2443H170.09V15.6543Z" fill="#1D4F7D"/>
<path d="M176.74 25.6444V17.4444H174.85V15.6544H176.74V11.5144H178.74V15.6144H183.05V17.4044H178.74V25.3344C178.696 25.6442 178.724 25.9601 178.824 26.2567C178.924 26.5533 179.092 26.8223 179.315 27.0421C179.538 27.262 179.809 27.4264 180.107 27.5224C180.405 27.6183 180.721 27.643 181.03 27.5944C181.725 27.6024 182.411 27.4411 183.03 27.1244V28.8544C182.289 29.2757 181.453 29.5027 180.6 29.5144C178.39 29.5144 176.74 28.4044 176.74 25.6444Z" fill="#1D4F7D"/>
<path d="M185.73 24.0945V15.6545H187.73V23.5945C187.73 26.1145 189.1 27.6945 191.49 27.6945C192.047 27.7111 192.602 27.611 193.118 27.4007C193.634 27.1905 194.1 26.8747 194.487 26.4736C194.874 26.0725 195.173 25.595 195.365 25.0716C195.556 24.5483 195.637 23.9907 195.6 23.4345V15.6545H197.6V29.2445H195.6V26.8745C195.137 27.6989 194.457 28.3808 193.633 28.8462C192.81 29.3115 191.875 29.5427 190.93 29.5145C187.65 29.5145 185.73 27.3245 185.73 24.0945Z" fill="#1D4F7D"/>
<path d="M202.21 25.6444V17.4444H200.32V15.6544H202.21V11.5144H204.21V15.6144H208.52V17.4044H204.21V25.3344C204.166 25.6442 204.194 25.9601 204.294 26.2567C204.394 26.5533 204.562 26.8223 204.785 27.0421C205.008 27.262 205.279 27.4264 205.577 27.5224C205.875 27.6183 206.191 27.643 206.5 27.5944C207.195 27.6024 207.881 27.4411 208.5 27.1244V28.8544C207.748 29.2494 206.909 29.4489 206.06 29.4344C203.87 29.5144 202.21 28.4044 202.21 25.6444Z" fill="#1D4F7D"/>
<path d="M210.15 22.5146C210.15 18.6046 212.91 15.4446 216.67 15.4446C220.67 15.4446 223 18.6546 223 22.6246C223 22.8846 223 23.0446 223 23.2746H212.2C212.239 24.5151 212.762 25.6911 213.658 26.5508C214.553 27.4105 215.749 27.8856 216.99 27.8746C217.8 27.8824 218.602 27.7148 219.34 27.3834C220.079 27.052 220.737 26.5645 221.27 25.9546L222.53 27.0846C221.853 27.9081 220.996 28.566 220.025 29.0079C219.055 29.4498 217.996 29.6642 216.93 29.6346C216.009 29.6401 215.097 29.457 214.249 29.0967C213.402 28.7364 212.637 28.2065 212.002 27.5395C211.367 26.8726 210.875 26.0827 210.556 25.2185C210.238 24.3544 210.1 23.4342 210.15 22.5146ZM220.95 21.7246C220.74 19.2646 219.32 17.1046 216.62 17.1046C214.25 17.1046 212.47 19.1046 212.2 21.7246H220.95Z" fill="#1D4F7D"/>
<path d="M22.4701 33.7644L21.8401 2.1144C21.8401 2.1144 22.8401 1.8044 22.8401 1.3144C22.8401 0.514404 23.1201 0.514404 23.1201 0.514404H16.3601C16.3601 0.514404 16.6701 0.514404 16.6701 1.3144C16.6701 1.8044 17.6701 2.1144 17.6701 2.1144L17.0901 33.7644C17.0901 33.7644 16.0901 33.7644 16.0901 34.4144C16.0901 35.0644 16.0901 35.4144 17.0301 35.4144H22.4501C23.3801 35.4144 23.3901 35.1244 23.3901 34.4144C23.3901 33.7044 22.4701 33.7644 22.4701 33.7644Z" fill="#1D4F7D"/>
<path d="M12.3201 31.8146L11.8401 7.40457C11.8401 7.40457 12.5801 7.16457 12.5801 6.78457C12.5801 6.16457 12.8001 6.17457 12.8001 6.17457H7.60008C7.60008 6.17457 7.83008 6.17457 7.83008 6.78457C7.83008 7.16457 8.59008 7.40457 8.59008 7.40457H8.60008L8.15008 31.8146C8.15008 31.8146 7.39008 31.8146 7.39008 32.3146C7.39008 32.8146 7.39008 33.0446 8.12008 33.0446H12.3001C13.0301 33.0446 13.0301 32.8246 13.0301 32.3146C13.0301 31.8046 12.3201 31.8146 12.3201 31.8146Z" fill="#1D4F7D"/>
<path d="M4.2501 29.8245L3.8901 11.7445C3.8901 11.7445 4.4401 11.5645 4.4401 11.2845C4.4401 10.8245 4.6101 10.8245 4.6101 10.8245H0.760098C0.760098 10.8245 0.930098 10.8245 0.930098 11.2845C0.930098 11.5645 1.4901 11.7445 1.4901 11.7445L1.1601 29.8245C1.1601 29.8245 0.600098 29.8245 0.600098 30.2045C0.600098 30.5845 0.600098 30.7445 1.1401 30.7445H4.2401C4.7701 30.7445 4.7801 30.5745 4.7801 30.2045C4.7801 29.8345 4.2501 29.8245 4.2501 29.8245Z" fill="#1D4F7D"/>
</svg>
