<svg width="224" height="36" viewBox="0 0 224 36" fill="none" xmlns="http://www.w3.org/2000/svg">
<path d="M35.5482 20.105C35.5065 18.8593 35.7164 17.618 36.1655 16.4553C36.6145 15.2925 37.2934 14.2323 38.1616 13.338C39.0298 12.4437 40.0694 11.7336 41.2183 11.2503C42.3672 10.767 43.6017 10.5203 44.8482 10.525C46.1814 10.4846 47.5085 10.7226 48.7447 11.2236C49.981 11.7246 51.0992 12.4778 52.0282 13.435L50.6082 14.965C49.8657 14.1753 48.9705 13.5447 47.9769 13.1116C46.9833 12.6784 45.9121 12.4516 44.8282 12.445C43.8554 12.4506 42.8937 12.653 42.0012 13.0401C41.1087 13.4271 40.3037 13.9907 39.6348 14.697C38.9659 15.4034 38.4468 16.2377 38.1088 17.15C37.7708 18.0622 37.6209 19.0334 37.6682 20.005V20.055C37.6682 24.315 40.7382 27.645 44.7882 27.645C45.9086 27.6439 47.0164 27.4075 48.0396 26.951C49.0629 26.4945 49.9788 25.8281 50.7282 24.995L52.0882 26.335C51.1699 27.3601 50.0418 28.1756 48.7805 28.726C47.5192 29.2764 46.1542 29.549 44.7782 29.525C43.548 29.5322 42.3289 29.2919 41.1933 28.8187C40.0578 28.3454 39.029 27.6487 38.168 26.77C37.307 25.8912 36.6314 24.8484 36.1814 23.7035C35.7313 22.5586 35.516 21.3348 35.5482 20.105V20.105Z" fill="#1D4F7D"/>
<path d="M54.918 10.465H57.228V12.695H54.918V10.465ZM55.048 15.665H57.048V29.255H55.048V15.665Z" fill="#1D4F7D"/>
<path d="M60.3382 22.525C60.3342 21.0826 60.7708 19.6734 61.5896 18.486C62.4084 17.2986 63.5704 16.3895 64.92 15.8806C66.2696 15.3716 67.7424 15.287 69.1414 15.6381C70.5404 15.9891 71.7988 16.7591 72.7482 17.845L71.3982 19.265C70.9021 18.644 70.2764 18.1388 69.5647 17.7847C68.8531 17.4307 68.0728 17.2362 67.2782 17.215C66.6119 17.2328 65.9559 17.3837 65.3487 17.6587C64.7415 17.9338 64.1955 18.3274 63.7427 18.8166C63.2899 19.3057 62.9394 19.8805 62.712 20.507C62.4845 21.1336 62.3846 21.7993 62.4182 22.465V22.525C62.3901 23.2024 62.4981 23.8786 62.7359 24.5135C62.9736 25.1484 63.3363 25.7292 63.8025 26.2215C64.2687 26.7138 64.8289 27.1076 65.4499 27.3796C66.071 27.6516 66.7403 27.7962 67.4182 27.805C68.2122 27.785 68.9929 27.5963 69.7084 27.2515C70.4239 26.9067 71.0579 26.4136 71.5682 25.805L72.8582 27.005C71.9527 28.1674 70.7035 29.0145 69.2885 29.4255C67.8735 29.8365 66.3649 29.7905 64.9776 29.2941C63.5903 28.7976 62.3949 27.8761 61.5619 26.6607C60.7289 25.4453 60.3007 23.998 60.3382 22.525V22.525Z" fill="#1D4F7D"/>
<path d="M74.5583 22.5251C74.5583 18.6151 77.3184 15.4551 81.0784 15.4551C85.0784 15.4551 87.4083 18.6651 87.4083 22.6351C87.424 22.8515 87.424 23.0687 87.4083 23.2851H76.6083C76.6449 24.5247 77.1659 25.7007 78.0595 26.5606C78.9531 27.4206 80.1482 27.8961 81.3883 27.8851C82.2045 27.8844 83.0106 27.705 83.75 27.3594C84.4894 27.0139 85.1442 26.5107 85.6683 25.8851L86.9383 27.0151C86.2569 27.8313 85.3984 28.4816 84.4281 28.9165C83.4578 29.3514 82.4011 29.5595 81.3383 29.5251C80.428 29.5297 79.5261 29.3502 78.6869 28.9973C77.8477 28.6443 77.0885 28.1253 76.4552 27.4713C75.8218 26.8174 75.3272 26.0421 75.0012 25.1921C74.6753 24.342 74.5246 23.4348 74.5583 22.5251V22.5251ZM85.3583 21.7351C85.1483 19.2751 83.7283 17.1151 81.0183 17.1151C78.6583 17.1151 76.8683 19.1151 76.6083 21.7351H85.3583Z" fill="#1D4F7D"/>
<path d="M90.668 15.6651H92.668V19.2151C93.087 18.0886 93.8446 17.1196 94.8365 16.4409C95.8285 15.7623 97.0062 15.4075 98.208 15.4251V17.6151H98.048C95.048 17.6151 92.668 19.7351 92.668 23.8351V29.2551H90.668V15.6651Z" fill="#1D4F7D"/>
<path d="M99.508 22.525C99.4934 20.6473 100.225 18.8406 101.543 17.5026C102.86 16.1645 104.655 15.4046 106.533 15.39C108.411 15.3754 110.217 16.1073 111.555 17.4248C112.894 18.7422 113.653 20.5373 113.668 22.415V22.525C113.661 23.4525 113.472 24.3696 113.11 25.2238C112.749 26.0779 112.222 26.8523 111.561 27.5026C110.899 28.1529 110.116 28.6663 109.256 29.0133C108.396 29.3603 107.476 29.5342 106.548 29.525C105.625 29.5303 104.711 29.3531 103.857 29.0037C103.003 28.6542 102.227 28.1395 101.572 27.4889C100.918 26.8384 100.399 26.0649 100.045 25.213C99.6904 24.3611 99.508 23.4476 99.508 22.525V22.525ZM111.588 22.525C111.611 21.8474 111.499 21.1721 111.26 20.5379C111.02 19.9037 110.658 19.323 110.193 18.8295C109.728 18.336 109.171 17.9392 108.552 17.6621C107.933 17.385 107.266 17.2331 106.588 17.215C105.91 17.2141 105.239 17.3513 104.615 17.618C103.992 17.8848 103.429 18.2756 102.961 18.7667C102.493 19.2578 102.13 19.8389 101.894 20.4747C101.658 21.1105 101.554 21.7876 101.588 22.465V22.525C101.564 23.2014 101.675 23.8758 101.914 24.5089C102.153 25.142 102.516 25.7212 102.982 26.2126C103.447 26.7041 104.006 27.098 104.625 27.3713C105.244 27.6447 105.911 27.7921 106.588 27.805C107.269 27.8061 107.943 27.6681 108.568 27.3995C109.194 27.1309 109.758 26.7373 110.226 26.243C110.695 25.7486 111.057 25.1638 111.291 24.5245C111.525 23.8852 111.626 23.2048 111.588 22.525V22.525Z" fill="#1D4F7D"/>
<path d="M125.198 10.855H127.278V29.255H125.198V10.855Z" fill="#1D4F7D"/>
<path d="M131.898 15.665H133.898V18.035C134.355 17.2077 135.03 16.5219 135.85 16.0528C136.671 15.5836 137.604 15.3491 138.548 15.375C141.838 15.375 143.758 17.585 143.758 20.815V29.255H141.758V21.315C141.758 18.795 140.398 17.215 138.008 17.215C137.448 17.2007 136.892 17.3041 136.374 17.5187C135.857 17.7332 135.39 18.054 135.005 18.4603C134.619 18.8666 134.323 19.3493 134.136 19.8773C133.949 20.4052 133.875 20.9665 133.918 21.525V29.305H131.918L131.898 15.665Z" fill="#1D4F7D"/>
<path d="M146.488 27.5251L147.488 26.0851C148.832 27.1519 150.483 27.7584 152.198 27.8151C153.828 27.8151 155.008 26.9751 155.008 25.6651V25.6051C155.008 24.2451 153.408 23.7151 151.618 23.2151C149.488 22.6151 147.128 21.8751 147.128 19.3851V19.3251C147.128 16.9951 149.068 15.4351 151.748 15.4351C153.496 15.4585 155.201 15.975 156.668 16.9251L155.748 18.4551C154.565 17.6494 153.179 17.1921 151.748 17.1351C150.148 17.1351 149.118 17.9751 149.118 19.1351V19.1951C149.118 20.4751 150.798 20.9751 152.618 21.5351C154.718 22.1551 156.978 22.9751 156.978 25.4151V25.4751C156.978 28.0451 154.848 29.5451 152.138 29.5451C150.084 29.5137 148.097 28.8035 146.488 27.5251Z" fill="#1D4F7D"/>
<path d="M160.978 25.655V17.455H159.088V15.665H160.978V11.525H162.978V15.625H167.288V17.415H162.978V25.345C162.933 25.6548 162.962 25.9707 163.062 26.2673C163.162 26.5639 163.33 26.8329 163.553 27.0527C163.775 27.2726 164.047 27.4371 164.345 27.533C164.642 27.6289 164.959 27.6536 165.268 27.605C165.963 27.6131 166.649 27.4517 167.268 27.135V28.865C166.513 29.2613 165.67 29.4608 164.818 29.445C162.668 29.525 160.978 28.415 160.978 25.655Z" fill="#1D4F7D"/>
<path d="M170.028 10.465H172.338V12.695H170.028V10.465ZM170.158 15.665H172.158V29.255H170.158V15.665Z" fill="#1D4F7D"/>
<path d="M176.808 25.655V17.455H174.918V15.665H176.808V11.525H178.808V15.625H183.118V17.415H178.808V25.345C178.763 25.6548 178.792 25.9707 178.892 26.2673C178.992 26.5639 179.16 26.8329 179.383 27.0527C179.606 27.2726 179.877 27.4371 180.175 27.533C180.473 27.6289 180.789 27.6536 181.098 27.605C181.793 27.6131 182.479 27.4517 183.098 27.135V28.865C182.357 29.2863 181.521 29.5133 180.668 29.525C178.458 29.525 176.808 28.415 176.808 25.655Z" fill="#1D4F7D"/>
<path d="M185.798 24.105V15.665H187.798V23.605C187.798 26.125 189.168 27.705 191.558 27.705C192.115 27.7216 192.669 27.6215 193.185 27.4112C193.702 27.201 194.168 26.8852 194.555 26.4841C194.942 26.083 195.241 25.6055 195.433 25.0821C195.624 24.5588 195.704 24.0012 195.668 23.445V15.665H197.668V29.255H195.668V26.885C195.205 27.7094 194.524 28.3913 193.701 28.8567C192.878 29.322 191.943 29.5532 190.998 29.525C187.718 29.525 185.798 27.335 185.798 24.105Z" fill="#1D4F7D"/>
<path d="M202.278 25.655V17.455H200.388V15.665H202.278V11.525H204.278V15.625H208.588V17.415H204.278V25.345C204.233 25.6548 204.262 25.9707 204.362 26.2673C204.462 26.5639 204.63 26.8329 204.853 27.0527C205.075 27.2726 205.347 27.4371 205.644 27.533C205.942 27.6289 206.259 27.6536 206.568 27.605C207.263 27.6131 207.949 27.4517 208.568 27.135V28.865C207.816 29.2601 206.977 29.4595 206.128 29.445C203.938 29.525 202.278 28.415 202.278 25.655Z" fill="#1D4F7D"/>
<path d="M210.218 22.5251C210.218 18.6151 212.978 15.4551 216.738 15.4551C220.738 15.4551 223.068 18.6651 223.068 22.6351C223.068 22.8951 223.068 23.0551 223.068 23.2851H212.268C212.307 24.5256 212.83 25.7016 213.726 26.5613C214.621 27.421 215.817 27.8961 217.058 27.8851C217.868 27.8929 218.67 27.7253 219.408 27.3939C220.147 27.0625 220.806 26.575 221.338 25.9651L222.598 27.0951C221.921 27.9186 221.064 28.5765 220.093 29.0184C219.123 29.4603 218.064 29.6747 216.998 29.6451C216.077 29.6506 215.165 29.4675 214.317 29.1072C213.47 28.7469 212.705 28.217 212.07 27.55C211.435 26.8831 210.943 26.0932 210.624 25.229C210.306 24.3649 210.168 23.4447 210.218 22.5251V22.5251ZM221.018 21.7351C220.808 19.2751 219.388 17.1151 216.688 17.1151C214.318 17.1151 212.538 19.1151 212.268 21.7351H221.018Z" fill="#1D4F7D"/>
<path d="M22.5382 33.775L21.9082 2.12502C21.9082 2.12502 22.9082 1.81502 22.9082 1.32502C22.9082 0.525024 23.1882 0.525024 23.1882 0.525024H16.4282C16.4282 0.525024 16.7382 0.525024 16.7382 1.32502C16.7382 1.81502 17.7382 2.12502 17.7382 2.12502L17.1582 33.775C17.1582 33.775 16.1582 33.775 16.1582 34.425C16.1582 35.075 16.1582 35.425 17.0982 35.425H22.5182C23.4482 35.425 23.4582 35.135 23.4582 34.425C23.4582 33.715 22.5382 33.775 22.5382 33.775Z" fill="#1D4F7D"/>
<path d="M12.388 31.8251L11.908 7.41507C11.908 7.41507 12.648 7.17507 12.648 6.79507C12.648 6.17507 12.868 6.18507 12.868 6.18507H7.66801C7.66801 6.18507 7.89801 6.18507 7.89801 6.79507C7.89801 7.17507 8.65801 7.41507 8.65801 7.41507H8.66801L8.21801 31.8251C8.21801 31.8251 7.45801 31.8251 7.45801 32.3251C7.45801 32.8251 7.45801 33.0551 8.18801 33.0551H12.368C13.098 33.0551 13.098 32.8351 13.098 32.3251C13.098 31.8151 12.388 31.8251 12.388 31.8251Z" fill="#1D4F7D"/>
<path d="M4.31797 29.8351L3.95797 11.7551C3.95797 11.7551 4.50797 11.5751 4.50797 11.2951C4.50797 10.8351 4.67797 10.8351 4.67797 10.8351H0.827969C0.827969 10.8351 0.997969 10.8351 0.997969 11.2951C0.997969 11.5751 1.55797 11.7551 1.55797 11.7551L1.22797 29.8351C1.22797 29.8351 0.667969 29.8351 0.667969 30.2151C0.667969 30.5951 0.667969 30.7551 1.20797 30.7551H4.30797C4.83797 30.7551 4.84797 30.5851 4.84797 30.2151C4.84797 29.8451 4.31797 29.8351 4.31797 29.8351Z" fill="#1D4F7D"/>
</svg>
