<svg width="361" height="512" viewBox="0 0 361 512" fill="none" xmlns="http://www.w3.org/2000/svg">
<path d="M191.624 2.29979C258.761 11.699 251.6 113.412 239.627 163.093C244.775 167.793 257.217 178.468 265.811 183.57C276.553 189.948 312.135 218.817 324.556 231.909C336.976 245.001 340.669 288.975 352.753 317.173C364.838 345.37 352.753 354.098 351.075 369.54C349.397 384.981 335.633 421.907 333.955 429.963C332.277 438.02 304.75 473.602 295.015 487.03C285.281 500.457 251.376 502.471 229.557 506.164C207.737 509.856 204.716 513.213 149.328 510.192C93.9399 507.171 87.5619 492.401 73.7989 478.638C60.0359 464.875 32.8452 418.886 21.4319 400.759C10.0186 382.632 21.7677 376.254 9.34732 364.169C-3.07304 352.084 4.98341 321.537 9.34732 311.466C13.7112 301.396 31.1669 252.05 42.9159 229.895C52.315 212.17 67.4209 204.159 73.7989 202.368C76.2606 202.816 82.5939 200.757 88.2334 188.941C93.8729 177.125 117.214 162.086 128.18 156.044V148.994C123.48 147.316 112 140.737 103.675 127.846C95.3499 114.956 100.206 102.334 103.675 97.6346C102.556 94.5015 100.117 85.4826 99.3109 74.4722C98.3038 60.7091 107.703 -9.44921 191.624 2.29979Z" fill="#EBEBEB"/>
<path d="M159.04 4.61676C155.458 4.61676 151.41 6.20478 147.975 7.1587C145.093 7.95951 142.591 9.34442 139.835 10.3652C137.241 11.3258 134.804 13.2874 132.408 14.635C130.917 15.4737 129.302 16.2771 127.873 17.1769C126.472 18.0586 125.035 19.4838 123.52 20.101C121.416 20.9582 119.934 23.0872 118.203 24.5037C115.504 26.7124 112.978 29.0073 110.594 31.5314C109.17 33.0397 109.267 35.416 108.351 37.0638C107.806 38.0451 107.795 41.7947 108.8 42.2972" stroke="#D0D0D0" stroke-width="2" stroke-linecap="round"/>
<path d="M107.005 41.101C106.072 41.2047 104.618 44.023 104.164 44.8391C103.164 46.6398 102.637 48.5131 101.855 50.3715C100.491 53.6118 99.828 57.3098 99.828 60.8383" stroke="#D0D0D0" stroke-width="2" stroke-linecap="round"/>
<path d="M101.921 58.446C97.456 60.8098 97.7343 69.0609 97.7343 73.3986" stroke="#D0D0D0" stroke-width="2" stroke-linecap="round"/>
<path d="M101.024 68.9127C100.856 70.4241 99.59 72.0028 99.2466 73.548C98.9677 74.8032 98.6319 76.4647 98.6319 77.7347C98.6319 80.2276 98.3328 82.6231 98.3328 85.211C98.3328 89.8963 99.9863 93.8218 102.52 97.6217" stroke="#D0D0D0" stroke-width="2" stroke-linecap="round"/>
<path d="M157.844 4.61663C160.333 4.61663 162.724 3.71948 165.171 3.71948C167.042 3.71948 168.714 3.46938 170.537 3.13799C171.785 2.91113 173.047 2.3552 174.292 2.22422C175.736 2.07216 176.989 1.32707 178.545 1.32707C180.702 1.32707 182.777 1.02802 184.941 1.02802C188.586 1.02802 192.045 1.61955 195.657 1.90856C198.372 2.12571 203.319 2.62413 205.459 4.55018C207.307 6.21305 209.873 6.85506 211.823 8.37139C213.109 9.37182 214.033 10.8308 215.145 11.9434C216.061 12.8587 217.714 13.6212 218.85 14.2527C219.738 14.746 220.316 15.6578 221.093 16.2796C221.852 16.8865 221.924 18.2651 222.738 18.672" stroke="#D0D0D0" stroke-width="2" stroke-linecap="round"/>
<path d="M221.543 15.3826C222.86 15.529 224.544 17.1359 225.43 18.0741C226.296 18.9902 226.934 20.1263 227.823 21.0646C229.891 23.2478 231.379 25.9976 233.505 28.2418C235.57 30.4214 237.781 33.8746 238.821 36.6817C239.471 38.4367 240.21 40.3198 240.981 41.9982C241.556 43.2504 242.667 44.7088 242.775 46.1185C242.956 48.4692 244.121 50.5052 245.101 52.465C246.084 54.4307 248.329 56.7334 248.457 59.0441C248.599 61.5992 249.653 64.1547 249.653 66.8195C249.653 69.1022 250.252 71.3875 250.252 73.6977" stroke="#D0D0D0" stroke-width="2" stroke-linecap="round"/>
<path d="M192.833 9.10242C193.701 9.87432 195.146 9.95907 196.123 10.6641C197.29 11.5075 199.279 12.4223 200.077 13.5882C201.854 16.1862 204.555 18.8219 207.038 20.7654C209.559 22.7388 212.686 24.9464 215.843 25.6832C217.093 25.9746 224.653 28.3002 225.131 27.3446" stroke="#D0D0D0" stroke-width="2" stroke-linecap="round"/>
<path d="M197.916 15.9807C196.892 16.1668 195.966 17.4459 195.158 18.074C193.664 19.2364 191.973 20.1072 190.44 21.2141C187.955 23.0089 184.848 23.7395 182.366 25.4838C181.323 26.2164 180.182 26.1399 178.976 26.381C176.86 26.8042 174.786 27.144 172.63 27.3446C169.95 27.5939 167.425 28.5408 164.722 28.5408" stroke="#D0D0D0" stroke-width="2" stroke-linecap="round"/>
<path d="M177.88 18.9713C175.208 19.9258 172.86 21.6926 170.171 22.5599C167.391 23.4567 165.012 25.7942 162.147 26.431C157.711 27.4166 152.855 28.84 148.274 28.84" stroke="#D0D0D0" stroke-width="2" stroke-linecap="round"/>
<path d="M154.854 30.6342C154.854 35.6434 153.111 40.5842 149.538 44.1579C147.016 46.6798 144.628 49.6229 141.862 51.8668C139.399 53.8645 136.765 55.601 134.519 57.8478" stroke="#D0D0D0" stroke-width="2" stroke-linecap="round"/>
<path d="M136.91 34.2229C136.91 39.7369 136.853 46.0765 134.584 51.2024C133.69 53.2228 131.919 54.6136 130.796 56.4856C130.144 57.5713 128.835 58.5791 128.835 59.9413" stroke="#D0D0D0" stroke-width="2" stroke-linecap="round"/>
<path d="M123.753 42.297C122.971 44.7384 123.454 46.5951 123.454 49.0423C123.454 50.9402 123.239 52.762 123.155 54.6246C122.918 59.8358 120.638 65.2735 118.37 69.8097" stroke="#D0D0D0" stroke-width="2" stroke-linecap="round"/>
<path d="M126.443 30.6342C123.159 30.9327 120.671 34.5512 119.266 37.2133C118.231 39.1746 117.224 40.8079 117.172 43.1279C117.123 45.3352 117.172 47.5489 117.172 49.7568C117.172 53.4084 116.266 56.676 114.93 60.0907C113.287 64.2873 110.056 67.3266 107.603 71.0061" stroke="#D0D0D0" stroke-width="2" stroke-linecap="round"/>
<path d="M113.285 44.6896C112.225 44.8074 111.344 46.0461 110.826 46.8495C109.686 48.6187 108.115 50.2851 106.706 51.8503C103.817 55.0598 99.975 58.4601 99.2297 62.9318" stroke="#D0D0D0" stroke-width="2" stroke-linecap="round"/>
<path d="M111.491 58.1471C110.144 60.6908 108.89 63.3451 107.271 65.7729C106.338 67.1726 104.748 69.3067 103.417 70.3417C102.004 71.4408 99.9181 71.7089 98.3328 72.5016" stroke="#D0D0D0" stroke-width="2" stroke-linecap="round"/>
<path d="M110.295 73.9966C109.953 75.5343 107.882 76.9321 107.62 78.6319C107.307 80.6642 107.246 82.6771 107.304 84.7625C107.418 88.8362 109.738 92.3216 111.491 95.8274" stroke="#D0D0D0" stroke-width="2" stroke-linecap="round"/>
<path d="M102.519 73.3986C102.519 75.2713 102.277 83.9138 105.51 83.2673" stroke="#D0D0D0" stroke-width="2" stroke-linecap="round"/>
<path d="M126.145 66.8195C126.961 68.1441 126.489 70.6704 125.697 71.9033C124.722 73.419 122.832 74.194 121.361 75.1264C120.016 75.9786 118.791 77.0054 117.473 77.8844" stroke="#D0D0D0" stroke-width="2" stroke-linecap="round"/>
<path d="M131.527 67.4175C131.527 70.3139 131.508 73.1373 130.182 75.7909C129.036 78.0815 126.348 79.6674 125.546 82.071" stroke="#D0D0D0" stroke-width="2" stroke-linecap="round"/>
<path d="M157.545 12.6913C157.545 16.2437 155.704 18.4951 153.059 20.6993C149.94 23.2983 146.419 25.6351 143.855 28.8401C141.248 32.0988 139.779 35.3689 138.106 39.2405C137.829 39.8819 135.554 46.7832 135.714 46.7832" stroke="#D0D0D0" stroke-width="2" stroke-linecap="round"/>
<path d="M145.584 12.3922C145.418 14.0529 143.878 16.2306 142.859 17.4761C140.912 19.8558 138.536 21.8613 136.147 23.7728C133.784 25.6631 132.387 28.2771 130.93 30.8669C129.843 32.7995 127.895 35.674 129.734 37.5125" stroke="#D0D0D0" stroke-width="2" stroke-linecap="round"/>
<path d="M173.693 6.11218C173.295 8.50064 170.901 10.8652 169.506 12.6913C168.107 14.523 166.49 16.1745 165.087 18.0078C164.277 19.0667 163.709 20.2539 162.628 21.0648" stroke="#D0D0D0" stroke-width="2" stroke-linecap="round"/>
<path d="M188.945 5.81305C188.945 9.93964 188.298 14.8924 183.562 15.6817" stroke="#D0D0D0" stroke-width="2" stroke-linecap="round"/>
<path d="M205.094 8.50433C205.423 11.7889 209.276 15.5206 211.906 17.1768C214.209 18.6269 216.402 20.8141 219.15 21.3635" stroke="#D0D0D0" stroke-width="2" stroke-linecap="round"/>
<path d="M225.73 25.2513C225.892 26.1453 226.692 26.976 226.992 27.8763C227.239 28.6171 227.509 29.3512 227.889 30.0362C228.791 31.6596 230.098 33.5069 231.412 34.821C233.727 37.1364 235.695 39.7029 237.991 41.9982" stroke="#D0D0D0" stroke-width="2" stroke-linecap="round"/>
<path d="M236.793 41.101C236.904 42.316 237.612 43.3354 238.139 44.3905C238.72 45.5513 239.245 46.9079 239.933 47.9791C240.882 49.4539 241.692 51.15 242.409 52.764C244.138 56.6537 243.373 62.0346 243.373 66.2213C243.373 68.5091 242.957 71.2774 243.605 73.465C243.994 74.7774 244.569 77.0032 244.569 78.3329C244.569 79.8542 245.903 82.1813 246.596 83.5663C247.405 85.1857 248.25 87.2528 250.251 87.753" stroke="#D0D0D0" stroke-width="2" stroke-linecap="round"/>
<path d="M250.85 64.7262C250.85 68.2052 251.149 71.6358 251.149 75.1265C251.149 78.0189 250.335 80.9579 250.252 83.8655C250.208 85.4019 249.653 86.9486 249.653 88.5008C249.653 89.2225 249.566 91.2791 249.288 91.9399C248.789 93.1237 248.961 94.5029 248.308 95.678C247.984 96.2608 247.653 98.0241 247.261 98.22" stroke="#D0D0D0" stroke-width="2" stroke-linecap="round"/>
<path d="M223.935 30.3353C225.391 31.9734 226.295 34.2846 227.656 36.0172C228.98 37.7015 229.936 39.5129 230.879 41.4002C231.625 42.8904 232.754 44.6046 233.205 46.185C233.688 47.8754 235.212 49.234 235.83 50.9034C236.416 52.484 237.649 53.9969 238.007 55.6051C238.316 56.995 238.832 58.5077 239.253 59.8749C240.02 62.3681 241.28 65.5743 241.28 68.1653C241.28 69.1386 241.725 71.0368 242.11 71.9034C242.356 72.4554 242.177 73.4093 242.177 73.9968C242.177 74.958 242.476 75.851 242.476 76.8378C242.476 79.5533 243.091 81.7733 243.656 84.314C243.886 85.3493 243.809 87.6463 244.503 88.4177C245.37 89.3812 245.629 90.7372 246.214 91.7903C246.724 92.7079 246.962 94.7219 246.962 95.7611C246.962 97.0748 247.14 99.8331 247.859 100.911" stroke="#D0D0D0" stroke-width="2" stroke-linecap="round"/>
<path d="M112.986 76.6882C112.986 79.706 115.701 83.4329 118.535 84.4635C120.326 85.1147 122.076 85.6597 124.035 85.6597C124.952 85.6597 128.06 86.6127 128.537 85.6597" stroke="#D0D0D0" stroke-width="2" stroke-linecap="round"/>
<path d="M151.864 43.1944C151.171 44.1183 151.037 45.4464 150.518 46.484C149.961 47.5985 149.443 48.8548 149.172 50.0726C148.662 52.3674 146.756 54.9989 145.517 57.0172C144.235 59.1074 142.703 61.4127 141.098 63.2475C139.806 64.7244 138.582 67.3592 136.612 68.0157" stroke="#D0D0D0" stroke-width="2" stroke-linecap="round"/>
<path d="M134.818 57.8479C135.875 59.0229 136.198 61.4116 136.546 62.9318C136.851 64.2686 136.576 66.0066 137.061 67.268C137.628 68.7433 137.21 71 137.21 72.5679C137.21 74.8512 137.326 76.6699 136.463 78.7815C135.136 82.0236 131.924 85.3006 132.126 88.9492C132.192 90.1394 133.049 91.2337 133.306 92.3883C133.599 93.7072 134.065 95.2962 134.818 96.4255" stroke="#D0D0D0" stroke-width="2" stroke-linecap="round"/>
<path d="M130.63 93.136C127.203 93.4787 123.853 96.4774 123.752 100.014C123.683 102.408 123.611 104.888 124.35 107.191C124.636 108.083 125.676 112.587 127.041 111.677" stroke="#D0D0D0" stroke-width="2" stroke-linecap="round"/>
<path d="M122.855 87.4541C119.675 90.634 118.445 96.5809 119.499 100.911C119.954 102.783 120.973 104.343 121.891 105.995C122.39 106.893 123.799 108.86 124.649 109.285" stroke="#D0D0D0" stroke-width="2" stroke-linecap="round"/>
<path d="M118.07 108.986C117.567 108.923 115.687 105.044 115.379 104.35C114.533 102.447 113.22 101.032 112.239 99.2665C110.863 96.7909 108.468 95.5027 106.341 93.8005C104.939 92.6791 104.194 96.6352 103.417 97.0236" stroke="#D0D0D0" stroke-width="2" stroke-linecap="round"/>
<path d="M118.369 110.481C115.526 107.897 111.954 104.148 107.753 105.081C106.044 105.461 103.704 105.287 102.752 107.191C101.958 108.778 102.22 110.673 102.22 112.425C102.22 114.106 103.755 116.492 104.779 117.808C106.329 119.801 107.504 121.746 109.331 123.573C111.149 125.39 112.345 127.162 113.734 129.321C114.525 130.553 117.524 135.614 118.967 133.209" stroke="#D0D0D0" stroke-width="2" stroke-linecap="round"/>
<path d="M109.398 99.416C106.693 99.416 104.007 98.3067 101.323 99.6486C99.9149 100.353 99.3134 101.501 99.2298 103.005C99.1966 103.603 98.5153 104.728 98.9972 105.331C99.3234 105.738 99.3686 106.78 99.2132 107.324C98.6271 109.376 99.2298 112.698 99.2298 115.116C99.2298 116.611 99.5168 118.426 99.8446 119.901C100.186 121.438 101.754 123.034 101.921 124.536C102.062 125.799 103.933 127.796 104.546 129.022C105.383 130.696 106.261 132.166 107.603 133.508C109.909 135.814 111.517 138.971 114.033 140.984C116.224 142.737 119.316 144.336 121.061 146.517C121.717 147.337 123.338 147.595 124.217 147.846C124.841 148.024 127.154 149.358 127.042 149.358" stroke="#D0D0D0" stroke-width="2" stroke-linecap="round"/>
<path d="M112.388 114.668C112.388 116.12 114.078 118.663 115.379 119.386C117.237 120.418 117.093 121.176 116.874 123.041C116.803 123.645 116.276 124.295 116.276 124.985C116.276 125.749 116.535 126.253 116.575 126.929C116.647 128.164 117.472 129.525 117.472 130.816" stroke="#D0D0D0" stroke-width="2" stroke-linecap="round"/>
<path d="M126.892 123.34C127.1 124.122 127.687 124.778 128.154 125.417C128.912 126.451 129.451 127.569 130.256 128.582C132.522 131.432 135.178 133.929 137.433 136.789C139.37 139.245 141.869 141.29 143.672 143.825C145.037 145.745 145.383 148.052 146.779 149.956" stroke="#D0D0D0" stroke-width="2" stroke-linecap="round"/>
<path d="M168.759 76.6883C170.838 76.4573 172.83 75.0487 174.773 74.3291C175.615 74.0172 176.613 73.6271 177.498 73.515C178.521 73.3852 179.556 73.4389 180.571 73.2492C181.626 73.0521 182.686 72.8567 183.761 72.8089C185.668 72.7242 187.504 72.3019 189.393 72.2025C190.61 72.1384 191.785 71.7539 193.015 71.7539C195.015 71.7539 197.13 71.6554 199.113 71.3801C200.484 71.1896 202.038 71.1773 203.366 70.7654C204.96 70.2706 206.315 69.9111 208.009 69.8018C209.754 69.6892 211.443 69.2273 213.168 68.9877C214.812 68.7593 216.461 68.5959 218.102 68.3481C220.558 67.9774 222.948 68.0192 225.429 68.157C227.474 68.2706 229.415 68.3326 231.452 68.6803C232.201 68.8082 233.051 69.0625 233.802 69.0625" stroke="#D0D0D0" stroke-width="2" stroke-linecap="round"/>
<path d="M225.43 73.3986C224.76 73.9351 223.37 74.1472 222.556 74.4121C221.104 74.8843 219.492 75.1911 218.104 75.8243C215.667 76.9356 213.228 77.1876 210.594 77.4026C207.828 77.6284 205.117 77.4358 202.353 77.4358C201.063 77.4358 199.838 77.0033 198.549 76.9872C197.481 76.9739 196.481 76.8713 195.425 76.6882C190.755 75.878 186.345 75.4734 181.652 76.2396C178.907 76.6878 176.833 77.5034 174.442 78.9643C173.255 79.6895 172.149 80.407 171.069 81.2903C170.817 81.4968 169.481 82.3568 169.807 82.5197" stroke="#D0D0D0" stroke-width="2" stroke-linecap="round"/>
<path d="M203.449 82.6691C204.416 83.7568 204.316 85.1271 204.679 86.4404C205.003 87.6167 205.094 89.1087 205.094 90.3281C205.094 91.6977 205.095 93.1478 204.762 94.4816C204.48 95.6085 203.449 96.9214 203.449 98.0702" stroke="#D0D0D0" stroke-width="2" stroke-linecap="round"/>
<path d="M212.122 84.3138C212.122 86.3406 212.335 88.3563 212.429 90.3779C212.472 91.2875 212.68 92.2061 212.836 93.1026C212.942 93.7127 212.917 94.3485 213.169 94.9302C214.069 97.0125 215.74 98.6082 216.458 100.762" stroke="#D0D0D0" stroke-width="2" stroke-linecap="round"/>
<path d="M194.179 88.6501C193.15 90.335 190.9 91.5493 189.129 92.2055C187.65 92.753 185.415 92.6222 184.045 91.7902C183.067 91.1965 181.883 90.9341 180.88 90.3697C180.046 89.9007 179.128 89.6457 178.18 89.5141C176.617 89.297 175.002 88.6294 173.395 88.808C173.204 88.8292 172.055 89.096 172.348 88.9492" stroke="#D0D0D0" stroke-width="2" stroke-linecap="round"/>
<path d="M176.386 84.7626C177.421 85.7978 178.049 86.9386 178.778 88.1684C179.507 89.3993 179.97 90.8931 181.769 90.8931" stroke="#D0D0D0" stroke-width="2" stroke-linecap="round"/>
<path d="M233.055 86.7065C231.401 86.7065 229.585 86.8654 228.195 87.8279C227.643 88.2101 225.895 89.659 225.279 89.2484" stroke="#D0D0D0" stroke-width="2" stroke-linecap="round"/>
<path d="M221.243 82.071C222.011 82.2246 222.707 82.6439 223.486 82.7854C224.41 82.9535 225.364 83.0601 226.302 83.1094C227.182 83.1558 228.188 82.9352 229.018 83.2673" stroke="#D0D0D0" stroke-width="2" stroke-linecap="round"/>
<path d="M226.776 96.2761C225.585 97.169 223.774 97.4032 222.44 98.0704C221.298 98.6414 219.629 99.1384 218.702 100.014C218.112 100.571 217.41 100.886 217.024 101.659C216.65 102.407 215.938 103.107 215.711 103.902C215.457 104.793 214.665 105.424 214.665 106.444C214.665 107.499 214.843 108.415 214.972 109.443C215.067 110.205 215.705 111.367 216.085 112.051C216.467 112.739 216.758 114.166 216.758 114.967C216.758 117.401 216.907 119.958 216.907 122.443C216.907 123.846 216.848 125.258 217.173 126.63C217.526 128.119 218.164 129.277 218.768 130.659C219.724 132.842 220.73 134.728 222.274 136.615C223.374 137.96 224.234 140.153 224.234 141.881C224.234 142.658 224.038 143.712 224.267 144.457C224.395 144.872 224.409 146.348 224.201 146.816C223.871 147.558 223.921 147.978 223.154 148.461C222.485 148.882 221.486 149.478 220.72 149.648C220.079 149.791 219.442 150.105 218.776 150.105C217.699 150.105 216.622 150.105 215.545 150.105C213.382 150.105 211.441 149.497 209.498 148.577C207.661 147.707 206.3 146.816 204.164 146.816C202.73 146.816 201.296 146.816 199.861 146.816C198.885 146.816 197.621 147.265 196.647 146.891C195.713 146.531 194.798 146.45 194.329 145.395C194.2 145.104 193.898 144.744 193.88 144.423C193.85 143.876 193.954 143.313 193.806 142.779C193.576 141.95 193.807 140.531 194.038 139.722C194.243 139.003 194.657 138.672 195.226 138.293" stroke="#D0D0D0" stroke-width="2" stroke-linecap="round"/>
<path d="M190.589 145.171C190.034 145.373 189.566 146.415 189.21 146.849C188.371 147.874 187.363 148.694 186.477 149.665C185.025 151.258 183.81 152.883 182.781 154.774C180.992 158.06 178.553 162.219 179.525 166.104" stroke="#D0D0D0" stroke-width="2" stroke-linecap="round"/>
<path d="M191.188 162.366C191.549 162.772 191.348 163.85 191.338 164.343C191.306 165.812 190.527 166.786 189.693 167.899" stroke="#D0D0D0" stroke-width="2" stroke-linecap="round"/>
<path d="M194.329 164.759C195.434 164.759 196.594 164.908 197.735 164.908C199.617 164.908 201.517 164.586 203.375 164.31C205.547 163.989 207.366 164.133 209.506 164.319C211.819 164.52 214.03 164.31 216.309 164.31C218.091 164.31 219.786 164.759 221.543 164.759" stroke="#D0D0D0" stroke-width="2" stroke-linecap="round"/>
<path d="M198.515 161.17C200.714 161.17 202.701 159.824 204.912 159.824C205.783 159.824 206.603 159.974 207.478 159.974C208.579 159.974 209.734 160.572 210.851 160.572C211.965 160.572 212.808 160.519 213.65 159.708C214.319 159.064 215.582 158.911 216.458 158.786C217.326 158.662 218.189 159.267 219 159.492C220.298 159.853 221.482 160.452 222.738 160.871" stroke="#D0D0D0" stroke-width="2" stroke-linecap="round"/>
<path d="M219 170.59C218.541 170.636 218.061 171.06 217.655 171.263C217.008 171.587 216.36 171.8 215.719 172.16C214.637 172.769 213.034 173.236 211.79 173.282C211.24 173.302 210.651 173.488 210.103 173.573C209.433 173.676 208.743 173.489 208.077 173.656C206.701 174 205.018 173.73 203.599 173.73" stroke="#D0D0D0" stroke-width="2" stroke-linecap="round"/>
<path d="M226.925 144.573C228.32 147.536 229.961 150.303 231.046 153.403C231.591 154.963 232.05 156.591 232.491 158.18C232.764 159.163 232.881 160.116 233.023 161.137C233.238 162.69 234.452 163.788 235.299 165.058" stroke="#D0D0D0" stroke-width="2" stroke-linecap="round"/>
<path d="M239.336 141.433C239.336 142.23 239.239 143.128 239.112 143.916C238.895 145.258 239.022 146.637 238.854 147.979C238.654 149.579 238.588 151.096 238.588 152.714C238.588 154.07 238.703 155.484 238.58 156.834C238.403 158.784 238.015 160.473 237.542 162.366" stroke="#D0D0D0" stroke-width="2" stroke-linecap="round"/>
<path d="M218.851 104.799C219.461 104.731 220.008 103.818 220.645 103.636C221.449 103.406 222.222 103.116 223.046 103.013C224.726 102.803 226.424 102.855 228.121 102.855C229.923 102.855 231.29 103.497 232.79 104.383C233.336 104.706 234.175 105.021 234.626 105.472C235.791 106.636 233.868 105.767 233.205 105.546" stroke="#D0D0D0" stroke-width="2" stroke-linecap="round"/>
<path d="M221.841 100.911C223.398 100.911 225.084 100.366 226.634 100.172C228.391 99.9525 230.188 100.614 231.926 100.754C233.527 100.882 235.584 101.048 236.794 102.257C237.413 102.876 238.289 103.879 238.289 104.799" stroke="#D0D0D0" stroke-width="2" stroke-linecap="round"/>
<path d="M241.13 94.1826C240.068 94.4723 239.023 94.8688 237.982 95.2292C236.64 95.6936 235.218 95.9423 233.953 96.575" stroke="#D0D0D0" stroke-width="2" stroke-linecap="round"/>
<path d="M158.891 96.8741C158.891 98.9248 159.248 100.381 160.237 102.249C160.828 103.365 161.297 104.572 162.032 105.605C162.427 106.161 162.991 107.112 163.676 107.341" stroke="#D0D0D0" stroke-width="2" stroke-linecap="round"/>
<path d="M153.807 109.434C154.463 109.5 155.15 110.114 155.776 110.323C157.212 110.802 158.716 111.115 160.204 111.378C161.353 111.582 164.843 110.93 163.676 110.93" stroke="#D0D0D0" stroke-width="2" stroke-linecap="round"/>
<path d="M154.405 116.163C155.115 116.163 155.672 115.971 156.357 115.789C157.823 115.401 159.334 115.314 160.835 115.149C162.352 114.983 163.276 115.602 164.423 116.462" stroke="#D0D0D0" stroke-width="2" stroke-linecap="round"/>
<path d="M188.647 107.79C187.757 108.032 186.735 109.211 185.922 109.733C185.099 110.262 184.377 110.887 183.488 111.312C181.72 112.157 179.758 112.842 177.731 112.392C176.971 112.223 176.272 112.259 175.522 112.009C174.87 111.792 174.201 111.375 173.545 111.229C172.818 111.067 172.254 110.546 171.534 110.34C171.237 110.255 169.68 109.733 170.554 109.733" stroke="#D0D0D0" stroke-width="2" stroke-linecap="round"/>
<path d="M192.384 106.294C190.534 105.424 188.194 105.248 186.179 105.248C185.029 105.248 183.907 105.397 182.748 105.397C181.853 105.397 180.683 105.383 179.824 105.621C177.837 106.173 175.549 106.289 173.693 107.191C173.438 107.316 169.236 109.014 169.507 109.285" stroke="#D0D0D0" stroke-width="2" stroke-linecap="round"/>
<path d="M196.123 104.799C195.2 104.697 194.555 103.337 193.506 103.154C191.514 102.808 189.608 101.876 187.633 101.426C185.527 100.947 183.708 101.546 181.619 101.659C180.397 101.725 179.15 102.187 177.964 102.473C176.554 102.813 175.295 103.251 173.993 103.902C173.243 104.277 172.571 104.916 171.825 105.248C171.395 105.438 171.113 105.94 170.703 106.145" stroke="#D0D0D0" stroke-width="2" stroke-linecap="round"/>
<path d="M168.61 101.061C169.805 101.061 170.95 100.762 172.124 100.762C173.462 100.762 174.855 100.635 176.153 100.346C177.153 100.124 178.123 100.229 179.11 99.8646C179.659 99.6618 180.269 99.656 180.838 99.5323C181.365 99.4176 181.84 99.0292 182.375 98.9758C185.086 98.7046 187.843 98.5189 190.59 98.5189C192.335 98.5189 194.079 98.5189 195.824 98.5189C196.842 98.5189 197.959 98.4046 198.889 98.8179C201.334 99.9049 202.492 102.286 203.599 104.5" stroke="#D0D0D0" stroke-width="2" stroke-linecap="round"/>
<path d="M209.879 102.406C209.039 102.747 208.163 103.123 207.354 103.528C206.962 103.724 206.662 104.078 206.257 104.234C205.743 104.432 204.891 105.056 204.646 105.547" stroke="#D0D0D0" stroke-width="2" stroke-linecap="round"/>
<path d="M211.225 106.294C210.431 106.294 209.618 106.155 208.833 106.261C208.231 106.342 207.632 106.525 207.03 106.585C206.021 106.686 205.459 107.098 204.646 107.64" stroke="#D0D0D0" stroke-width="2" stroke-linecap="round"/>
<path d="M204.197 111.827C204.197 112.422 203.791 112.866 203.749 113.438C203.681 114.349 203.181 115.271 203.001 116.171C202.537 118.494 200.573 119.973 199.562 121.995" stroke="#D0D0D0" stroke-width="2" stroke-linecap="round"/>
<path d="M165.32 123.49C165.71 124.759 166.122 126.361 167.413 127.078C168.873 127.889 170.539 129.447 172.348 128.723" stroke="#D0D0D0" stroke-width="2" stroke-linecap="round"/>
<path d="M167.413 115.714C167.548 116.457 168.699 117.748 169.241 118.29C170.205 119.254 171.685 119.78 172.946 120.2" stroke="#D0D0D0" stroke-width="2" stroke-linecap="round"/>
<path d="M233.654 108.388C233.09 108.797 232.063 109.041 231.411 109.368C230.799 109.674 230.149 109.999 229.5 110.215C228.11 110.678 226.415 110.63 224.948 110.63C223.569 110.63 222.075 110.287 220.761 109.85C220.016 109.601 219.499 108.687 218.701 108.687" stroke="#D0D0D0" stroke-width="2" stroke-linecap="round"/>
<path d="M121.061 109.434C121.17 110.531 122.575 111.696 123.312 112.433C123.923 113.044 124.637 113.919 125.463 114.219C126.395 114.558 127.433 115.531 128.205 116.163C129.034 116.842 129.625 117.823 129.883 118.854" stroke="#D0D0D0" stroke-width="2" stroke-linecap="round"/>
<path d="M119.865 108.687C119.865 111.426 120.613 114.003 121.809 116.462C122.372 117.618 122.733 118.679 123.038 119.901C123.363 121.199 123.902 122.335 123.902 123.714C123.902 127.986 123.53 132.466 124.65 136.615C125.689 140.464 126.485 144.399 127.557 148.228C128.224 150.608 128.186 154.02 129.809 156.003C130.367 156.685 130.643 157.765 131.005 158.562C131.274 159.155 131.273 160.141 131.644 160.605C132.406 161.557 132.345 162.999 132.949 164.086C133.437 164.964 133.814 165.902 134.286 166.777C134.863 167.85 135.715 169.515 135.715 170.74" stroke="#D0D0D0" stroke-width="2" stroke-linecap="round"/>
<path d="M247.858 97.9208C247.858 99.9671 247.41 102.028 247.41 104.051C247.41 106.804 247.41 109.556 247.41 112.309C247.41 115.409 247.111 118.448 247.111 121.546C247.111 123.056 247.348 124.81 247.077 126.297C246.848 127.558 246.662 128.936 246.662 130.218C246.662 131.454 246.589 132.693 246.371 133.89C246.172 134.984 246.173 136.17 245.84 137.238C245.365 138.755 245.387 140.451 244.751 141.881C244.453 142.552 244.529 143.467 244.236 144.124C244.047 144.55 243.855 145.118 243.821 145.586C243.763 146.403 243.166 147.219 242.957 148.012C242.201 150.883 241.5 153.849 240.598 156.684C239.644 159.683 239.57 162.856 238.363 165.806C237.856 167.046 237.075 168.238 236.42 169.402C235.894 170.336 235.727 171.393 235.373 172.385C234.386 175.147 232.955 177.707 232.15 180.525C231.953 181.214 231.415 181.895 231.253 182.627C231.099 183.318 230.73 184.234 230.364 184.829C229.951 185.5 229.815 186.33 229.5 187.038C229.213 187.682 228.882 188.326 228.536 188.982C228.113 189.787 227.538 190.839 226.925 191.524C226.335 192.183 225.889 192.973 225.28 193.617C224.921 193.997 224.674 194.67 224.308 194.963C223.466 195.637 222.893 196.743 222.215 197.571C221.498 198.448 220.741 199.335 219.963 200.113C219.386 200.69 218.757 201.063 218.028 201.467C217.696 201.652 217.346 201.748 216.99 201.85C216.657 201.944 216.349 202.326 216.009 202.439" stroke="#D0D0D0" stroke-width="2" stroke-linecap="round"/>
<path d="M224.683 192.571C224.371 192.847 223.948 192.817 223.603 193.019C223.06 193.337 222.428 193.605 221.842 193.833C220.531 194.343 218.94 194.602 217.539 194.664C216.863 194.694 216.217 194.952 215.528 194.963C213.702 194.992 211.871 194.908 210.046 194.971C208.283 195.032 206.527 195.072 204.762 195.112C203.588 195.139 202.435 195.561 201.257 195.561C199.396 195.561 197.535 195.561 195.675 195.561C194.794 195.561 193.986 195.498 193.133 195.403C192.504 195.333 191.882 195.174 191.247 195.112C190.529 195.042 189.787 194.664 189.095 194.664" stroke="#D0D0D0" stroke-width="2" stroke-linecap="round"/>
<path d="M228.869 188.234C228.869 189.382 229.74 190.302 230.514 191.075C232.366 192.928 234.955 193.428 236.943 195.079C240.319 197.881 243.649 200.827 246.438 204.242C248.43 206.68 249.568 209.663 250.965 212.457C251.897 214.321 253.171 215.818 254.288 217.541C254.838 218.389 255.174 219.362 255.484 220.316C256.01 221.931 256.532 223.643 256.897 225.3C257.373 227.463 257.821 229.625 258.409 231.763C258.744 232.983 259.202 234.237 259.223 235.518C259.238 236.503 259.13 237.529 259.256 238.508C259.65 241.562 260.108 244.494 260.784 247.505C261.45 250.471 261.608 253.621 261.881 256.651C262.245 260.696 262.578 264.684 262.147 268.746C261.693 273.013 261.316 277.351 261.316 281.646C261.316 283.328 261.379 285.025 261.308 286.705C261.245 288.174 261.017 289.646 261.017 291.116C261.017 292.846 260.867 294.574 260.867 296.308C260.867 297.999 260.972 299.704 260.685 301.375C260.168 304.374 259.599 307.34 258.957 310.314C258.764 311.204 258.475 312.167 258.475 313.088" stroke="#D0D0D0" stroke-width="2" stroke-linecap="round"/>
<path d="M141.19 176.823C141.608 177.127 141.814 178.081 142.01 178.552C142.764 180.367 143.376 182.356 144.419 184.033C144.971 184.92 145.469 185.769 145.888 186.728C146.644 188.461 147.772 189.945 148.895 191.452C150.619 193.765 152.014 196.228 154.007 198.337C154.995 199.383 155.959 200.455 156.931 201.516C157.444 202.075 157.918 202.644 158.126 203.372" stroke="#D0D0D0" stroke-width="2" stroke-linecap="round"/>
<path d="M129.059 155.194C129.379 156.383 129.659 157.551 130 158.729C130.381 160.048 130.939 161.299 131.29 162.626C131.746 164.346 132.034 166.259 132.034 168.037C132.034 169.804 132.492 171.551 132.492 173.339C132.492 176.216 132.563 179.244 133.007 182.087C133.333 184.176 133.522 186.152 133.522 188.267C133.522 189.686 133.636 191.103 133.636 192.526C133.636 193.682 133.831 194.826 133.744 195.991C133.609 197.817 133.672 199.533 133.204 201.312C132.623 203.519 131.952 205.679 131.233 207.835" stroke="#D0D0D0" stroke-width="2" stroke-linecap="round"/>
<path d="M222.669 201.541C222.191 202.449 221.565 203.335 220.978 204.173C219.4 206.428 217.503 208.583 215.593 210.556C214.617 211.565 213.696 212.659 212.656 213.602C211.05 215.058 209.121 216.197 207.379 217.48C206.125 218.403 204.914 219.389 203.692 220.354C203.149 220.782 202.6 221.31 201.956 221.568" stroke="#D0D0D0" stroke-width="2" stroke-linecap="round"/>
<path d="M227.474 197.88C227.184 200.782 227.347 203.762 227.239 206.691C227.182 208.218 226.783 209.71 226.501 211.205C226.344 212.04 226.183 212.871 225.897 213.672C225.765 214.045 225.643 214.418 225.643 214.816" stroke="#D0D0D0" stroke-width="2" stroke-linecap="round"/>
<path d="M128.552 155.947C127.287 156.017 126.051 156.439 124.833 156.567C123.199 156.739 121.565 158.252 120.276 159.138C118.248 160.533 116.155 162.366 113.837 163.224C113.135 163.484 112.425 164.107 111.806 164.533C109.381 166.199 107.341 168.294 105.114 170.203C103.481 171.602 102.174 173.442 100.649 174.966C98.9246 176.691 97.0375 178.609 95.5413 180.533C93.9433 182.588 92.5096 184.744 90.9615 186.834C89.4503 188.875 87.8256 190.881 86.4048 192.975C84.9527 195.115 83.1218 197.062 81.8595 199.334C80.7755 201.285 79.1471 202.992 78.0603 204.924C76.8749 207.031 75.9234 209.391 74.6284 211.478C72.7086 214.571 70.3737 217.425 68.3155 220.419C66.5923 222.925 64.2075 224.857 62.347 227.225C61.0136 228.922 59.977 230.86 58.674 232.597C55.9675 236.206 53.6712 240.146 52.0627 244.328C51.1785 246.626 49.9222 248.783 49.3768 251.237C49.1457 252.277 48.6818 253.303 48.2979 254.29C47.9044 255.302 47.3331 256.647 47.1501 257.699C46.9788 258.684 46.361 259.613 45.9105 260.489C45.369 261.541 45.1102 262.618 44.5102 263.634C43.8639 264.727 43.3437 266 42.9147 267.192C42.5284 268.265 42.1106 269.788 41.4685 270.715C40.6595 271.884 40.4303 273.392 39.919 274.698C39.4232 275.965 38.9325 277.273 38.5646 278.578C37.7653 281.412 36.4798 284.061 35.741 286.934C35.3967 288.273 34.6257 289.477 34.1456 290.767C33.3994 292.773 32.6186 294.746 31.8615 296.747C30.8364 299.456 29.4916 302.118 28.7165 304.908C28.3217 306.329 27.613 307.887 27.0063 309.235C26.361 310.669 25.7685 312.268 24.9976 313.632C23.6126 316.082 22.5312 318.698 20.9115 321.012C19.2013 323.455 17.9114 326.156 16.1137 328.553C15.1801 329.798 14.6062 331.168 13.7722 332.478C12.8371 333.948 11.6342 335.624 11.2011 337.357C10.804 338.945 9.31373 340.489 9.13507 342.097C8.9325 343.92 7.62452 345.705 7.28711 347.56C7.07506 348.727 6.65582 350.006 6.65582 351.188" stroke="#D0D0D0" stroke-width="2" stroke-linecap="round"/>
<path d="M89.7108 187.144C88.2806 187.144 86.6765 188.641 85.7394 189.578C84.4548 190.862 83.4053 192.409 82.0664 193.652C80.1682 195.415 78.2349 197.866 76.9013 200.057C75.499 202.361 73.625 204.367 72.3561 206.772C71.2809 208.809 69.9141 210.714 68.8897 212.763C68.0234 214.496 67.4229 216.448 66.4679 218.146C65.1198 220.543 64.4406 223.429 63.2655 225.779" stroke="#D0D0D0" stroke-width="2" stroke-linecap="round"/>
<path d="M74.2151 201.4C73.0661 201.515 71.9341 201.928 70.9095 202.433C68.4459 203.648 66.027 204.835 63.6783 206.267C60.8162 208.011 58.9781 210.056 56.6997 212.419C53.1296 216.121 50.481 220.663 46.8975 224.379C41.8554 229.608 37.7456 235.436 34.9145 242.147C30.3991 252.85 27.1047 264.126 24.2171 275.364C19.0714 295.39 8.28985 313.443 3.60263 333.58C3.03411 336.023 2.36837 338.804 2.3171 341.316C2.28913 342.687 1.90389 344.043 1.90389 345.403C1.90389 348.315 1.44746 351.68 2.3171 354.493C3.22576 357.433 3.82016 359.306 6.013 361.3C6.91798 362.122 7.91604 362.881 9.03171 363.377C9.67495 363.663 10.3779 365.029 10.9944 364.823" stroke="#D0D0D0" stroke-width="2" stroke-linecap="round"/>
<path d="M131.651 172.269C128.582 175.337 125.911 178.753 123.272 182.209C122.214 183.594 120.701 184.528 119.622 185.905C118.676 187.111 117.773 188.328 116.89 189.589C112.97 195.189 107.668 199.709 103.598 205.165C101.316 208.225 98.4752 211.024 95.9541 213.911C94.638 215.418 93.4411 217.281 91.7646 218.433C90.6596 219.193 85.8762 222.498 87.644 218.755C88.4826 216.979 90.0139 215.509 91.4088 214.164C92.9799 212.649 94.5724 211.21 96.0115 209.549C99.6568 205.343 103.414 201.18 106.284 196.396C107.803 193.865 109.58 191.504 111.151 189.004C112.628 186.654 114.107 184.171 116.27 182.381C117.689 181.207 118.839 179.827 120.379 178.788C121.556 177.995 122.797 177.254 124.006 176.516C124.861 175.994 126.533 174.748 127.519 174.748" stroke="#D0D0D0" stroke-width="2" stroke-linecap="round"/>
<path d="M76.6951 228.672C74.8056 230.561 73.137 232.896 71.9433 235.283C70.193 238.784 67.8953 241.944 65.7452 245.2C63.5847 248.472 61.6164 251.898 59.547 255.232C58.6179 256.729 57.5193 258.125 56.6546 259.662C55.7185 261.326 55.0193 263.116 54.1639 264.827C52.5968 267.962 50.8913 271.086 49.4694 274.285C48.821 275.744 48.1999 277.213 47.5526 278.67C47.1235 279.635 46.494 280.617 46.3244 281.677C45.7356 285.357 46.3061 288.787 47.3115 292.306C47.7714 293.915 48.4391 293.91 49.6416 292.707C50.8002 291.549 52.0439 290.731 52.9357 289.367C53.9665 287.791 55.177 286.267 56.0577 284.604C58.4124 280.156 60.2288 275.604 62.0263 270.911C62.7262 269.083 63.3278 267.2 64.0923 265.401C64.9348 263.419 66.0528 261.585 66.9389 259.616C68.5136 256.117 69.8103 252.565 71.53 249.126C72.8252 246.535 74.2845 244.016 75.2489 241.275C76.3054 238.272 77.7199 235.509 78.9678 232.597" stroke="#D0D0D0" stroke-width="2" stroke-linecap="round"/>
<path d="M10.9944 365.237C12.1108 365.237 13.6162 365.741 14.1968 366.786C14.9343 368.114 14.5067 370.328 14.5067 371.802C14.5067 376.014 14.5067 380.227 14.5067 384.439C14.5067 387.475 14.802 390.995 16.4809 393.633C17.9172 395.89 19.4264 398.004 21.118 400.107C21.7346 400.873 22.3795 401.593 22.9775 402.379C23.771 403.422 24.2151 404.71 24.9402 405.811C25.5856 406.791 26.2911 407.714 26.8914 408.727C27.1875 409.226 27.1619 410.087 27.7293 410.276" stroke="#D0D0D0" stroke-width="2" stroke-linecap="round"/>
<path d="M16.1594 362.551C15.6699 362.115 15.4828 361.641 15.0805 361.104C14.3192 360.089 13.2784 359.275 12.5553 358.223C11.9049 357.277 10.9646 356.163 10.1679 355.319C8.88119 353.957 7.47157 352.325 6.55235 350.671C5.57621 348.914 9.1527 345.743 10.3745 345.035C12.9463 343.546 14.7826 343.415 17.6975 343.945C21.5569 344.646 24.877 348.422 27.0061 351.497C28.7285 353.985 31.4064 356.079 32.527 358.992C33.4695 361.443 33.7127 365.97 31.9531 368.232C30.7179 369.82 28.6669 370.313 26.8569 371.021C25.0427 371.731 23.151 372.272 21.3245 372.881" stroke="#D0D0D0" stroke-width="2" stroke-linecap="round"/>
<path d="M13.0604 333.213C15.2174 332.973 17.7151 331.595 19.9242 332.226C21.6488 332.719 23.5308 332.49 25.1352 333.511C26.5918 334.438 28.1044 335.348 28.8081 336.932C29.2851 338.005 29.5854 338.679 30.3232 339.618C31.336 340.907 33.1861 341.552 34.5012 342.464C35.7298 343.316 37.3381 343.672 38.3693 344.783C39.3853 345.877 39.86 346.927 39.9188 348.456C40.0333 351.433 40.1254 354.367 40.1254 357.386" stroke="#D0D0D0" stroke-width="2" stroke-linecap="round"/>
<path d="M125.452 202.02C124.814 203.167 123.898 204.253 123.179 205.371C122.222 206.86 121.845 208.728 121.067 210.284C120.149 212.121 119.102 213.668 118.427 215.656C117.797 217.511 117.399 219.334 116.878 221.211C116.159 223.799 116.361 226.815 116.361 229.498C116.361 232.172 114.856 233.085 112.447 233.928C110.514 234.605 108.712 235.126 107.385 236.832C106.964 237.374 107.435 238.062 107.684 238.497C108.164 239.337 108.966 239.123 109.589 239.576C109.963 239.848 111.524 239.828 112.022 239.828C112.928 239.828 114.195 240.082 115.018 240.448C116.424 241.073 118.427 242.689 118.427 244.373C118.427 246.152 117.338 247.511 115.902 248.506C114.271 249.635 112.116 251.162 114.697 252.936C115.534 253.512 116.717 253.464 117.704 253.464C119.59 253.464 121.699 253.76 123.546 254.13C125.179 254.456 126.699 254.978 128.298 255.369C128.579 255.438 129.87 255.845 129.584 256.15C129.14 256.622 128.541 256.881 128.034 257.275C127.507 257.685 127.623 258.653 128.356 258.836C130.083 259.267 131.947 259.321 133.716 259.616C136.136 260.019 138.194 261.358 140.488 262.095C141.77 262.508 143.187 262.304 144.459 262.658C146.78 263.302 149.697 263.229 152.092 263.369C154.426 263.507 156.606 263.832 158.921 264.207C161.386 264.606 163.903 264.722 166.359 265.08C169.644 265.557 173.051 266.146 176.368 266.262C179.549 266.374 182.814 266.687 185.986 266.687C187.838 266.687 189.701 266.893 191.576 266.893C195.253 266.893 198.937 266.48 202.63 266.48C205.694 266.48 208.724 266.367 211.8 266.675C213.755 266.871 216.808 267.018 218.722 266.526C219.907 266.221 221.015 265.994 222.142 265.493C223.074 265.079 224.183 264.676 225.241 264.621C226.737 264.542 228.266 264.055 229.741 263.794C230.667 263.63 231.626 263.682 232.518 263.427C233.719 263.084 235.142 263.382 236.386 263.071C237.392 262.82 238.764 262.555 239.795 262.555C240.703 262.555 241.405 262.19 241.356 261.315C241.292 260.153 237.811 259.011 238.98 257.608C239.317 257.204 239.561 256.689 239.91 256.265C240.491 255.56 241.517 255.171 242.286 254.715C243.395 254.058 244.568 253.525 245.592 252.729C247.581 251.182 248.866 249.093 249.666 246.692C250.633 243.793 250.043 240.528 250.539 237.556C250.772 236.157 250.24 234.533 250.24 233.125C250.24 232.262 250.119 231.48 250.045 230.634C249.989 229.985 250.231 229.074 249.988 228.465C249.509 227.267 249.388 225.802 249.046 224.539C248.568 222.769 247.939 221.068 247.44 219.283C247.187 218.381 246.357 217.767 246.108 216.895C245.956 216.362 245.682 215.911 245.385 215.449C244.833 214.591 244.245 213.662 243.881 212.717C243.458 211.617 242.746 210.745 242.343 209.618C241.915 208.418 241.401 207.297 240.828 206.152C239.845 204.186 237.963 202.138 236.398 200.573" stroke="#D0D0D0" stroke-width="2" stroke-linecap="round"/>
<path d="M184.748 245.2C186.435 245.856 187.726 247.2 189.454 247.84C190.328 248.164 191.405 248.335 192.346 248.299C193.193 248.266 194.56 246.957 195.124 246.393C195.931 245.586 196.762 243.855 197.97 244.58" stroke="#D0D0D0" stroke-width="2" stroke-linecap="round"/>
<path d="M121.94 199.747C120.028 201.659 118.648 203.962 117.027 206.106C115.071 208.694 112.86 211.296 111.093 214.014C110.187 215.408 109.21 216.773 108.052 217.974C105.869 220.238 104.272 223.437 102.6 226.1C100.919 228.777 98.9536 231.127 97.8707 234.135C97.064 236.376 96.7685 238.752 96.5737 241.114C96.0245 247.773 96.1162 254.582 94.4618 261.108C92.9166 267.203 91.8002 273.399 89.4 279.266C88.4686 281.543 88.2637 283.379 88.2637 285.797C88.2637 289.409 88.0655 293.102 88.4244 296.69C88.7697 300.143 88.4955 303.709 88.6884 307.181C88.8905 310.819 89.6309 314.53 89.9624 318.177C90.3041 321.936 90.9662 325.651 91.3168 329.402C91.7519 334.058 93.1303 338.013 94.6913 342.349C95.6739 345.079 97.3477 347.656 98.8005 350.154C100.458 353.005 101.722 355.978 102.933 359.038C104.139 362.089 104.76 365.334 106.261 368.267C108.455 372.554 110.865 376.728 113.504 380.755C115.731 384.154 118.596 387.166 120.953 390.488C121.907 391.833 122.885 393.156 123.799 394.528C124.983 396.303 126.372 397.618 127.725 399.234C131.035 403.187 134.874 406.923 138.927 410.115C142.606 413.013 145.803 416.265 149.809 418.643C153.831 421.032 157.942 423.268 161.929 425.725C164.979 427.605 168.297 429.023 171.445 430.73C176.041 433.223 180.474 435.484 185.528 436.928C186.399 437.177 187.581 437.616 188.466 437.743C189.393 437.875 190.206 438.374 191.152 438.374" stroke="#D0D0D0" stroke-width="2" stroke-linecap="round"/>
<path d="M86.6113 315.445C86.0435 318.001 86.4047 320.904 86.4047 323.503C86.4047 327.069 86.4047 330.634 86.4047 334.2C86.4047 337.409 86.8422 340.774 86.5654 343.956C86.2942 347.076 86.1981 350.317 86.1981 353.449C86.1981 363.868 85.698 374.245 85.5783 384.657C85.5019 391.31 84.695 398.034 85.3602 404.686C85.5955 407.039 87.3662 409.398 89.0906 410.999C90.5498 412.354 92.2097 413.421 93.7277 414.73C95.2336 416.028 96.5531 417.573 97.9286 418.999C99.1651 420.282 99.9141 422.017 100.867 423.499C101.88 425.075 103.18 426.191 104.379 427.585C106.613 430.181 109.707 432.132 112.138 434.564C116.132 438.558 119.999 442.627 124.202 446.409C125.083 447.202 126.058 447.863 126.899 448.704C127.96 449.765 128.854 450.993 129.998 451.964C132.463 454.057 134.535 455.893 137.39 457.428C139.248 458.427 141.139 459.378 142.968 460.435C144.055 461.063 145.289 461.989 146.538 462.145C147.828 462.306 149.001 463.131 150.245 463.477C151.152 463.729 151.94 464.088 152.816 464.406C153.385 464.613 154.161 464.837 154.687 465.129C155.24 465.436 155.827 465.854 156.443 466.059" stroke="#D0D0D0" stroke-width="2" stroke-linecap="round"/>
<path d="M175.45 437.961C173.59 437.961 171.584 436.847 169.826 436.308C168.223 435.817 166.61 434.94 165.074 434.242C163.538 433.544 161.883 432.786 160.414 431.97C158.721 431.029 157.281 429.696 155.616 428.71C153.83 427.652 152.519 426.267 150.864 425.037C147.991 422.901 145.561 420.381 142.807 418.127C140.655 416.367 138.15 414.731 136.414 412.56C135.116 410.939 133.237 409.295 131.604 408.004C129.185 406.091 126.791 404.698 123.685 404.698C120.943 404.698 120.906 408.195 121.423 410.265C122.015 412.632 122.499 414.287 124.316 415.969C127.115 418.561 129.66 421.583 132.89 423.659C136.219 425.799 139.323 427.89 142.968 429.49C145.338 430.531 147.724 431.615 150.199 432.383C152.4 433.066 154.613 433.301 156.856 433.737C159.666 434.284 162.615 434.612 165.35 435.482C167.666 436.219 170.154 436.265 172.455 437.031C173.436 437.359 174.615 437.961 175.657 437.961" stroke="#D0D0D0" stroke-width="2" stroke-linecap="round"/>
<path d="M235.16 187.97C235.271 189.972 238.464 191.121 239.957 191.804C242.866 193.135 245.985 193.783 249.002 194.788C253.007 196.123 256.954 197.307 261.031 198.415C263.896 199.194 266.67 200.45 269.639 200.78C271.799 201.02 274.086 201.837 276.17 202.433C278.378 203.064 280.584 203.595 282.701 204.522C286.553 206.207 290.875 207.439 293.881 210.444C296.042 212.606 297.031 216.213 297.875 219.122C298.357 220.781 298.812 222.488 299.207 224.172C299.957 227.372 301.157 230.308 301.571 233.618C301.934 236.518 301.816 239.301 301.697 242.204C301.578 245.139 300.792 247.887 300.343 250.778C299.613 255.482 299.207 260.27 299.207 265.034" stroke="#D0D0D0" stroke-width="2" stroke-linecap="round"/>
<path d="M240.118 163.798C240.197 164.51 241.062 164.908 241.564 165.29C242.621 166.097 243.587 167.091 244.674 167.838C247.205 169.578 249.547 171.575 252.101 173.302C258.648 177.729 264.689 182.845 271.475 186.938C273.887 188.392 276.017 190.486 278.328 192.103C280.072 193.324 281.045 195.296 282.678 196.602C283.62 197.356 284.316 198.384 285.249 199.173C286.385 200.134 287.523 201.261 288.451 202.422C290.103 204.487 292.187 205.995 294.248 207.598C296.275 209.175 298.826 209.63 301.02 210.904C303.61 212.408 306.13 214.028 308.71 215.552C313.419 218.335 319.284 222 321.933 227.019C322.958 228.961 324.021 230.873 325.043 232.815C325.798 234.25 326.421 235.693 327.109 237.154C327.729 238.472 328.625 239.642 329.118 241.022C329.958 243.375 331.044 245.667 331.953 247.989C332.889 250.382 334.158 252.441 335.362 254.715C336.438 256.748 337.417 258.839 338.541 260.844C339.313 262.222 340.338 263.622 340.688 265.195C341.201 267.507 342.386 269.798 343.121 272.07C345.207 278.518 347.758 285.004 347.758 291.892C347.758 297.127 349.587 302.447 350.754 307.502C351.27 309.739 351.92 311.949 352.395 314.194C352.859 316.388 353.229 318.645 353.749 320.817C354.256 322.934 354.235 325.049 354.622 327.176C355.039 329.472 356.288 331.425 356.952 333.638C357.684 336.079 358.915 338.896 358.915 341.477C358.915 345.594 359.402 349.74 358.915 353.885C358.763 355.171 358.576 356.764 358.191 357.994C357.904 358.914 356.928 359.646 356.275 360.324C355.178 361.461 354.407 363.046 353.646 364.399C352.774 365.949 351.691 367.133 350.605 368.542C349.958 369.38 349.258 370.402 348.171 370.402" stroke="#D0D0D0" stroke-width="2" stroke-linecap="round"/>
<path d="M241.977 255.737C242.935 255.976 243.441 257.054 244.364 257.39C244.894 257.582 245.721 257.901 245.948 258.468C246.184 259.058 246.729 259.133 246.729 259.765C246.729 260.334 246.935 260.813 246.935 261.407C246.935 265.7 246.935 269.992 246.935 274.285C246.935 277.343 246.729 280.367 246.729 283.422C246.729 286.976 245.873 290.488 245.707 294.05C245.516 298.16 245.511 302.442 245.707 306.55C245.98 312.281 245.489 317.972 245.489 323.709" stroke="#D0D0D0" stroke-width="2" stroke-linecap="round"/>
<path d="M222.763 266.687C220.852 268.81 221.074 272.28 221.11 274.951C221.134 276.692 221.591 278.44 221.833 280.162C222.271 283.272 222.845 286.01 223.773 289C224.471 291.247 224.586 293.778 224.623 296.116C224.677 299.59 225.242 303.025 225.541 306.481C226.071 312.616 224.991 319.212 226.689 325.155" stroke="#D0D0D0" stroke-width="2" stroke-linecap="round"/>
<path d="M227.721 263.794C227.787 264.318 229.94 265.276 230.407 265.562C231.44 266.193 232.246 267.297 232.726 268.385C235.175 273.943 235.159 280.544 235.159 286.566C235.159 293.72 234.316 300.949 233.965 308.099C233.587 315.811 233.742 323.544 233.506 331.262C233.346 336.505 232.89 341.768 232.255 346.975C231.984 349.198 231.625 351.425 230.866 353.54C229.923 356.17 228.332 358.521 226.895 360.898" stroke="#D0D0D0" stroke-width="2" stroke-linecap="round"/>
<path d="M180.617 271.025C182.744 275.635 182.723 280.589 183.555 285.488C184.455 290.785 186.372 295.868 186.975 301.235C187.606 306.844 187.518 312.565 187.63 318.2C187.762 324.9 188.12 331.229 189.707 337.758C190.712 341.892 191.573 346.094 193.334 349.982C195.394 354.528 196.867 359.397 198.178 364.204" stroke="#D0D0D0" stroke-width="2" stroke-linecap="round"/>
<path d="M107.064 251.191C104.734 253.522 104.998 257.466 104.998 260.5C104.998 267.601 104.086 274.767 104.688 281.872C105.42 290.5 105.686 299.276 104.379 307.847C103.626 312.778 103.205 317.673 102.829 322.642C102.63 325.274 102.833 327.918 102.978 330.55C103.068 332.182 103.025 333.881 103.346 335.486" stroke="#D0D0D0" stroke-width="2" stroke-linecap="round"/>
<path d="M120.287 259.249C120.287 265.523 120.7 271.768 120.7 278.05C120.7 285.547 120.287 293.035 120.287 300.535C120.287 303.838 120.478 307.206 120.184 310.498C119.866 314.052 120.182 317.558 120.069 321.104C119.925 325.624 120.041 330.335 119.151 334.785C118.414 338.47 117.463 342.473 117.395 346.229C117.338 349.341 117.075 352.576 116.821 355.687C116.381 361.075 118.998 365.893 120.7 370.815C121.393 372.819 122.367 374.869 123.891 376.393C124.926 377.427 126.018 378.318 126.898 379.492" stroke="#D0D0D0" stroke-width="2" stroke-linecap="round"/>
<path d="M143.428 374.74C146.66 375.25 149.491 376.195 151.681 378.677C153.808 381.088 154.9 383.995 156.123 386.907C156.881 388.711 157.207 390.66 157.799 392.52C158.595 395.023 159.323 397.536 159.968 400.084C161.047 404.344 163.179 410.134 167.153 412.618C168.702 413.586 170.459 413.2 172.146 413.168C174.261 413.129 174.828 412.055 175.199 410.115C175.693 407.54 175.419 404.828 175.613 402.219C175.899 398.354 175.865 394.32 175.865 390.442" stroke="#D0D0D0" stroke-width="2" stroke-linecap="round"/>
<path d="M162.435 271.852C163.146 273.274 163.864 274.685 164.249 276.236C165.237 280.223 166.627 284.083 167.772 288.024C168.945 292.061 169.626 296.211 170.906 300.225C171.988 303.622 172.975 306.953 173.81 310.418C175.339 316.763 177.336 323.194 178.24 329.666C179.331 337.47 180.689 345.245 181.638 353.07C183.372 367.381 182.682 381.751 182.682 396.112C182.682 398.431 182.682 400.749 182.682 403.068C182.682 405.402 182.309 407.695 182.269 410.024C182.244 411.488 182.062 412.93 182.062 414.397C182.062 414.957 181.763 415.612 182.062 416.061" stroke="#D0D0D0" stroke-width="2" stroke-linecap="round"/>
<path d="M195.905 399.946C195.905 402.148 195.698 404.341 195.698 406.546C195.698 408.916 195.826 411.331 195.652 413.697C195.594 414.487 194.659 419.467 195.285 419.78" stroke="#D0D0D0" stroke-width="2" stroke-linecap="round"/>
<path d="M262.637 288.173C262.637 290.209 262.637 292.244 262.637 294.28C262.637 296.674 263.123 299.093 263.246 301.488C263.372 303.956 263.214 306.412 263.418 308.88C263.686 312.128 264.057 315.306 264.451 318.544C265.17 324.461 264.439 330.763 263.785 336.645C262.934 344.302 261.171 352.142 257.472 358.992C255.545 362.561 253.312 365.83 250.872 369.059C249.486 370.894 248.292 372.778 246.729 374.488C245.336 376.01 243.705 377.449 242.482 379.113C240.066 382.399 237.527 385.595 235.205 388.95C232.179 393.32 228.813 397.648 226.137 402.241C221.541 410.132 214.527 416.418 208.415 423.085C205.707 426.04 202.472 428.525 199.164 430.73C198.291 431.312 197.295 431.742 196.432 432.291C195.339 432.987 194.478 434.453 193.735 435.47C190.532 439.853 187.723 444.736 185.138 449.531C183.036 453.43 179.971 456.568 176.288 459.023C174.278 460.363 171.735 461.619 169.367 462.134C167.304 462.582 165.301 463.195 163.272 463.775C161.577 464.259 159.85 464.254 158.142 464.613C155.601 465.146 153.031 465.908 150.555 466.679C147.891 467.507 145.095 468.416 142.566 469.606C139.646 470.98 137.694 473.357 135.806 475.907C133.04 479.641 131.001 483.746 127.725 487.133C125.967 488.95 124.29 491.346 121.722 491.988C120.551 492.281 119.165 492.091 117.969 492.091C116.001 492.091 114.087 492.093 112.138 492.401C110.273 492.695 108.292 492.609 106.606 493.583C105.895 493.994 103.309 495.678 105.412 494.364" stroke="#D0D0D0" stroke-width="2" stroke-linecap="round"/>
<path d="M260.365 204.086C261.053 204.273 261.617 205.157 262.121 205.624C262.764 206.219 263.561 206.684 264.176 207.3C265.098 208.221 266.118 209.204 267.183 209.974C270.924 212.676 274.316 216.094 277.731 219.168C278.684 220.025 279.739 221.647 281.025 222.014C282.576 222.457 283.917 223.563 285.364 224.287C287.071 225.141 288.939 225.679 290.69 226.445C292.213 227.111 293.644 227.931 295.281 228.258" stroke="#D0D0D0" stroke-width="2" stroke-linecap="round"/>
<path d="M286.397 226.192C288.423 230.245 290.13 234.501 291.562 238.795C292.882 242.755 294.356 246.628 295.694 250.571C297.421 255.662 298.447 260.968 300.193 266.067C300.561 267.142 300.533 268.361 300.756 269.476C301.075 271.072 301.49 272.664 301.903 274.239C302.756 277.488 303.432 280.966 303.706 284.317C304.218 290.608 304.126 296.926 304.624 303.209C304.917 306.912 305.054 310.628 305.599 314.309C306.123 317.846 305.783 321.446 306.07 324.995C306.17 326.237 306.194 327.458 306.242 328.702C306.33 330.986 306.99 333.237 307.459 335.463C307.94 337.748 308.231 340.177 308.297 342.51C308.445 347.792 309.024 353.036 309.49 358.304C310.791 372.995 312.842 387.597 312.842 402.379C312.842 405.326 312.327 408.26 312.234 411.206C312.12 414.796 312.117 418.404 311.763 421.984C311.2 427.678 309.643 432.671 307.264 437.915C305.926 440.862 304.713 443.844 303.66 446.902C302.445 450.43 301.771 454.171 300.859 457.795C300.059 460.971 299.744 464.287 298.598 467.367C297.821 469.455 297.186 471.589 296.314 473.657C294.672 477.551 292.88 481.387 290.735 485.021C290.118 486.067 289.342 487.132 288.555 488.062C287.902 488.834 287.786 489.317 286.81 488.992" stroke="#D0D0D0" stroke-width="2" stroke-linecap="round"/>
<path d="M294.454 306.768C294.851 307.115 294.842 309.088 294.867 309.706C294.928 311.17 295.255 312.625 295.281 314.091C295.361 318.744 295.251 323.391 295.085 328.036C294.718 338.312 294.49 348.693 295.694 358.923C296.092 362.308 296.474 365.756 296.52 369.162C296.57 372.762 297.055 376.254 297.347 379.825C298.081 388.815 299.56 397.904 298.69 406.959C298.239 411.642 298.916 416.434 298.081 421.088C297.438 424.67 296.833 428.342 296.474 431.969C295.807 438.712 292.817 444.585 290.93 451C289.782 454.903 288.805 458.838 287.728 462.753C286.621 466.777 284.831 470.604 282.884 474.277C280.846 478.125 278.958 482.152 276.273 485.583C275.411 486.685 274.307 487.552 273.484 488.693C272.621 489.89 271.784 491.121 270.901 492.298" stroke="#D0D0D0" stroke-width="2" stroke-linecap="round"/>
<path d="M290.943 338.378C290.851 339.988 290.421 341.546 290.162 343.13C289.871 344.911 289.796 346.717 289.496 348.502C288.728 353.071 287.728 357.541 287.132 362.137C286.619 366.095 286.369 370.221 285.364 374.097C284.097 378.987 281.816 383.107 279.373 387.504C277.147 391.51 275.166 395.648 272.876 399.624C271.381 402.22 269.618 404.714 268.262 407.384C267.229 409.417 266.24 411.38 265.083 413.352C263.039 416.836 260.99 420.651 259.539 424.44C258.064 428.291 255.805 431.824 253.915 435.482C251.519 440.116 248.469 444.669 245.123 448.658C241.282 453.235 236.786 457.086 232.795 461.502C230.053 464.536 227.015 467.361 224.531 470.616C221.663 474.374 220.074 479.002 217.093 482.633C215.568 484.491 214.373 486.597 212.686 488.326C211.021 490.033 209.442 491.772 207.842 493.537C205.482 496.14 203.34 498.916 200.955 501.491C198.883 503.729 196.789 505.801 194.562 507.885C193.91 508.495 193.107 509.702 192.289 510.065C191.825 510.272 191.511 510.534 191.153 510.892" stroke="#D0D0D0" stroke-width="2" stroke-linecap="round"/>
<path d="M200.656 451.39C202.82 449.227 205.043 447.098 207.268 444.997C209.506 442.883 212.077 441.146 214.384 439.109C215.786 437.871 217.111 436.578 218.631 435.482C220.014 434.484 221.56 433.639 222.832 432.498C224.634 430.88 225.984 428.874 227.733 427.218C229.738 425.318 231.277 423.248 233.093 421.18C234.872 419.154 236.881 417.352 238.671 415.338C242.425 411.115 246.231 406.861 249.415 402.173C250.915 399.963 253.187 396.393 256.118 395.86C256.919 395.714 261.642 394.463 262.121 395.516C262.505 396.36 262.371 397.892 261.972 398.706C260.81 401.074 258.721 403.416 257.059 405.433C254.678 408.322 251.913 410.888 249.426 413.685C247.061 416.346 244.948 419.321 242.918 422.248C241.341 424.522 239.629 426.732 237.96 428.939C235.249 432.524 232.63 436.262 229.604 439.591C225.381 444.236 221.861 449.437 217.437 453.915C213.131 458.274 209.231 463.142 205.202 467.758C203.755 469.416 201.972 470.914 200.312 472.372C198.086 474.328 195.37 476.135 192.76 477.537C184.981 481.715 176.871 485.282 168.495 488.074C164.725 489.33 160.959 490.441 157.27 491.931C154.916 492.881 152.227 493.768 149.74 494.318C144.094 495.568 138.527 497.06 132.902 498.393C131.664 498.686 130.414 498.887 129.217 499.322C128.444 499.604 127.344 499.508 126.692 499.942" stroke="#D0D0D0" stroke-width="2" stroke-linecap="round"/>
<path d="M151.485 504.281C153.027 502.91 155.609 502.956 157.259 501.801C158.894 500.657 160.804 500.446 162.481 499.483C164.962 498.058 167.533 497.44 170.171 496.43C171.522 495.912 172.849 495.308 174.212 494.823C175.982 494.192 178.012 494.313 179.859 494.203C181.872 494.083 183.963 493.974 185.977 493.974C186.316 493.974 189.409 493.992 189.489 494.272C189.678 494.936 189.267 495.579 188.88 496.063C186.79 498.675 183.986 500.653 180.938 502.008C176.62 503.927 172.332 506.033 168.14 508.206C167.725 508.421 165.276 509.446 166.567 509.446" stroke="#D0D0D0" stroke-width="2" stroke-linecap="round"/>
<path d="M210.16 503.867C211.767 502.599 213.667 501.698 215.371 500.562C217.339 499.249 218.984 497.694 220.823 496.223C222.872 494.584 225.317 493.49 227.101 491.517C228.354 490.133 229.952 489.096 231.119 487.649C233.205 485.062 234.888 482.103 236.651 479.282C238.757 475.912 240.645 472.389 242.643 468.951C244.633 465.525 247.021 462.442 249.208 459.161C250.586 457.093 252.626 454.868 254.465 453.249C255.254 452.555 262.107 444.666 263.096 445.766C264.179 446.969 262.925 449.744 262.522 450.988C262.028 452.515 261.232 454.169 260.525 455.614C259.421 457.872 258.287 460.086 256.967 462.225C255.281 464.958 253.621 467.625 251.687 470.191C249.54 473.041 247.281 476.176 244.663 478.616C240.152 482.818 236.551 487.788 232.485 492.389C229.759 495.473 227.234 498.976 223.681 501.181C221.511 502.529 219.608 504.003 217.598 505.566C216.428 506.476 213.949 507.997 213.466 509.446" stroke="#D0D0D0" stroke-width="2" stroke-linecap="round"/>
<path d="M282.678 387.136C282.571 388.427 281.991 389.767 281.645 391.016C281.091 393.017 280.69 395.03 280.291 397.065C279.244 402.396 278.419 407.87 277.972 413.283C277.29 421.543 272.928 428.829 269.157 436.033C266.449 441.205 263.257 446.004 263.257 451.964C263.257 453.866 263.257 455.767 263.257 457.669C263.257 459.964 262.987 462.402 263.671 464.613C264.02 465.743 264.158 466.96 265.014 467.815C265.647 468.449 267.578 468.641 268.423 468.286C269.355 467.893 270.401 467.652 271.315 467.195C272.993 466.356 273.886 464.353 274.161 462.593C274.543 460.153 274.747 457.802 274.609 455.316C274.522 453.748 274.549 452.331 274.609 450.759C274.671 449.15 274.259 447.189 274.827 445.651C275.366 444.193 275.928 442.726 276.319 441.221C277.297 437.46 277.16 433.381 277.926 429.548C278.623 426.064 279.598 422.756 279.992 419.206C280.172 417.592 280.617 416.018 280.819 414.408" stroke="#D0D0D0" stroke-width="2" stroke-linecap="round"/>
<path d="M288.256 398.913C287.788 406.404 288.178 413.856 288.773 421.329C289.544 431.014 288.707 440.727 287.636 450.357" stroke="#D0D0D0" stroke-width="2" stroke-linecap="round"/>
<path d="M341.354 308.627C341.161 311.519 341.064 314.419 340.952 317.316C340.876 319.312 340.718 321.297 340.734 323.296C340.748 325.024 341.065 326.723 340.838 328.45C340.356 332.112 340.313 335.792 339.483 339.422C338.401 344.158 338.656 349.059 337.417 353.781C334.44 365.132 331.942 376.581 328.292 387.756C326.892 392.043 325.072 396.166 323.483 400.382C321.781 404.897 320.309 409.501 318.49 413.972C316.401 419.107 314.074 424.143 312.051 429.306C311.472 430.784 310.796 432.251 310.57 433.829" stroke="#D0D0D0" stroke-width="2" stroke-linecap="round"/>
<path d="M333.089 381.558C332.907 385.285 332.293 388.823 331.539 392.462C330.479 397.58 329.916 402.578 329.737 407.797C329.453 416.096 328.581 424.445 327.602 432.692C327.135 436.631 325.522 440.024 323.987 443.631C322.635 446.807 321.552 450.068 320.279 453.25" stroke="#D0D0D0" stroke-width="2" stroke-linecap="round"/>
<path d="M344.039 343.956C343.777 351.55 344.452 359.079 344.452 366.671C344.452 370.991 344.742 375.27 344.464 379.572C344.307 382.006 344.452 384.492 344.452 386.93C344.452 389.209 344.246 391.495 344.246 393.748C344.246 399.76 342.748 406.029 340.309 411.516C336.519 420.043 332.656 428.765 330.817 437.961" stroke="#D0D0D0" stroke-width="2" stroke-linecap="round"/>
<path d="M349.618 369.989C349.618 372.265 349.824 374.552 349.824 376.806C349.824 379.235 349.886 381.859 349.411 384.233C348.527 388.651 346.23 392.879 344.246 396.847" stroke="#D0D0D0" stroke-width="2" stroke-linecap="round"/>
<path d="M140.122 274.124C140.122 276.708 140.241 279.248 140.535 281.815C140.958 285.506 140.948 289.179 140.948 292.891C140.948 300.553 141.361 308.202 141.361 315.858" stroke="#D0D0D0" stroke-width="2" stroke-linecap="round"/>
<path d="M63.0576 334.659C59.8975 343.864 57.7821 353.445 55.7805 362.964C54.5253 368.933 52.9503 374.808 52.7389 380.938C52.3309 392.769 53.5538 404.599 53.5538 416.428C53.5538 420.64 53.8898 425.008 54.8394 429.123C55.3544 431.355 56.1477 433.511 56.6988 435.734C57.4273 438.673 58.9872 441.238 60.257 443.952C63.0695 449.965 66.847 455.223 70.4264 460.791C71.2314 462.043 72.2013 463.143 72.6761 464.567C73.2727 466.356 73.8469 468.492 75.0406 469.984" stroke="#D0D0D0" stroke-width="2" stroke-linecap="round"/>
<path d="M26.2839 410.483C27.7262 413.425 29.0839 416.267 31.0358 418.942C32.8565 421.437 34.436 423.847 35.8335 426.598C38.6368 432.115 42.6437 436.902 46.8295 441.381C49.9877 444.761 52.8855 448.733 55.2084 452.733C56.0919 454.255 56.792 455.873 57.6876 457.382C59.1928 459.918 61.2004 461.995 62.8527 464.406C64.5614 466.9 66.2217 469.513 68.19 471.81C70.6288 474.655 73.4212 477.186 75.8228 480.062C77.7533 482.374 79.625 484.763 81.3437 487.236C82.9801 489.591 84.5202 492.233 86.5892 494.238C88.9489 496.524 91.6922 498.178 94.3368 500.137C95.5448 501.032 96.5954 501.663 97.9753 502.215" stroke="#D0D0D0" stroke-width="2" stroke-linecap="round"/>
<path d="M62.2316 395.607C62.835 399.026 65.0852 402.462 66.6162 405.524C69.6088 411.509 72.598 417.854 76.5906 423.246C78.3373 425.606 80.2496 427.824 81.9623 430.213C83.9338 432.964 85.9335 435.688 88.2178 438.191C91.6741 441.978 95.6037 446.249 100.04 448.911" stroke="#D0D0D0" stroke-width="2" stroke-linecap="round"/>
<path d="M124.833 469.158C122.913 468.299 121.167 467.033 119.312 466.036C116.639 464.6 113.898 463.417 111.106 462.237C105.997 460.077 100.881 457.896 95.817 455.637C93.9712 454.814 92.067 454.141 90.2502 453.25C88.0511 452.171 86.0127 450.965 83.6733 450.174C81.6034 449.473 79.4337 448.704 77.2227 448.704C76.2485 448.704 74.4163 448.7 75.2944 450.196C76.2066 451.751 77.7431 452.852 79.2199 453.824C82.1177 455.73 85.0213 457.598 87.8513 459.608C91.4884 462.192 94.938 465.011 98.6406 467.505C102.421 470.051 105.954 472.969 109.751 475.471C111.871 476.868 114.968 478.455 117.602 478.455" stroke="#D0D0D0" stroke-width="2" stroke-linecap="round"/>
<path d="M120.908 479.695C119.268 479.695 117.782 480.134 116.271 480.728C114.076 481.591 111.884 482.323 109.659 483.092C105.631 484.485 102.305 487.271 98.9618 489.819C96.217 491.91 93.4869 493.803 91.7766 496.843" stroke="#D0D0D0" stroke-width="2" stroke-linecap="round"/>
<path d="M54.3813 325.569C52.7193 327.87 52.0556 330.987 51.2823 333.672C50.2442 337.276 48.9822 340.815 47.9881 344.427C46.5589 349.62 45.2483 354.692 44.3496 360.003C43.7513 363.538 42.7725 366.987 42.3983 370.562C42.0698 373.701 41.8091 376.845 41.4801 379.986C40.8992 385.531 40.351 391.284 40.8488 396.858C41.351 402.483 40.7554 408.172 41.7785 413.743C42.4411 417.35 43.6203 420.84 44.7169 424.325C45.6891 427.416 46.7464 430.587 47.8848 433.622C48.7325 435.883 49.3356 438.937 50.8691 440.853" stroke="#D0D0D0" stroke-width="2" stroke-linecap="round"/>
<path d="M47.1498 337.552C46.9336 339.01 46.3356 340.407 46.0709 341.867C45.7733 343.509 45.5562 345.072 45.4855 346.734C45.3778 349.264 45.035 351.895 44.5558 354.378C44.0858 356.814 43.6287 359.377 42.9718 361.77C42.0662 365.069 40.4912 368.082 39.0923 371.182C38.3695 372.784 37.66 374.497 36.3949 375.762C34.876 377.281 32.8641 378.615 31.138 379.894C29.346 381.221 26.5942 381.66 25.0432 383.211" stroke="#D0D0D0" stroke-width="2" stroke-linecap="round"/>
<path d="M266.149 215.656C266.701 217.861 267.868 220.218 268.881 222.267C269.922 224.372 270.733 226.606 271.842 228.672C274.205 233.072 276.754 237.353 279.624 241.435C281.989 244.798 282.058 248.864 282.058 252.833C282.058 258.142 281.851 263.452 281.851 268.753" stroke="#D0D0D0" stroke-width="2" stroke-linecap="round"/>
<path d="M272.76 238.795C273.017 242.382 273.844 245.991 274.207 249.584C274.763 255.087 276.348 260.407 277.294 265.849C277.771 268.587 278.14 271.302 278.798 274.009C279.598 277.303 280.281 280.559 280.382 283.961C280.57 290.32 280.198 296.688 280.198 303.049" stroke="#D0D0D0" stroke-width="2" stroke-linecap="round"/>
<path d="M127.725 347.469C127.829 348.457 128.841 349.258 129.424 349.994C130.858 351.804 132.191 353.477 133.097 355.641C133.705 357.093 134.215 358.527 134.337 360.106C134.479 361.963 134.241 364.075 134.75 365.856" stroke="#D0D0D0" stroke-width="2" stroke-linecap="round"/>
<path d="M218.632 324.329C220.441 327.43 221.444 331.051 223.085 334.257C224.47 336.963 226.449 339.713 227.102 342.717C227.522 344.646 227.584 346.628 227.711 348.593C227.773 349.564 227.624 350.543 227.562 351.509C227.484 352.714 227.638 353.967 227.424 355.159C226.98 357.626 226.23 360.292 225.427 362.665C224.132 366.489 221.115 369.812 219.045 373.248C217.728 375.434 216.352 377.579 215.039 379.768C214.856 380.073 214.706 380.582 214.706 380.938" stroke="#D0D0D0" stroke-width="2" stroke-linecap="round"/>
<path d="M133.097 103.676C132.874 105.682 130.48 107.74 129.172 109.048" stroke="#D0D0D0" stroke-width="2" stroke-linecap="round"/>
</svg>
